<?xml version="1.0" encoding="utf-8"?>
<!-- Generator: Adobe Illustrator 26.0.0, SVG Export Plug-In . SVG Version: 6.00 Build 0)  -->
<svg version="1.1" xmlns="http://www.w3.org/2000/svg" xmlns:xlink="http://www.w3.org/1999/xlink" x="0px" y="0px"
	 viewBox="0 0 220 177" style="enable-background:new 0 0 220 177;" xml:space="preserve">
<style type="text/css">
	.st0{opacity:0.2;fill:#1E1A21;enable-background:new    ;}
	.st1{fill:url(#SVGID_1_);}
	.st2{fill:url(#SVGID_00000082368470237115219430000002928767937266839202_);}
	.st3{fill:url(#SVGID_00000061469457013254723190000004553144424749172381_);}
	.st4{fill:url(#SVGID_00000171718191120401260740000001083393294119843976_);}
	.st5{fill:url(#SVGID_00000002344315216529696800000014624358548733377175_);}
	.st6{fill:url(#SVGID_00000154417178488815886250000002982972493634983824_);}
	.st7{opacity:0.25;fill:url(#SVGID_00000071523519368513147860000004653984317723853230_);enable-background:new    ;}
	.st8{fill:url(#SVGID_00000170957741894745237680000018407642874487419045_);}
	.st9{fill:url(#SVGID_00000077322987407955758720000007914928812185095320_);}
	.st10{fill:url(#SVGID_00000147204692552688393840000011911625571457461178_);}
	.st11{fill:url(#SVGID_00000176039890265892283860000007565879832773383573_);}
	.st12{fill:url(#SVGID_00000018933732312462450670000014835775515542066324_);}
	.st13{fill:url(#SVGID_00000139990393068626307810000000486127305584298372_);}
	.st14{fill:url(#SVGID_00000109715140125840441400000000838008329808509886_);}
	.st15{fill:url(#SVGID_00000039819233469204747590000003871515033806217614_);}
</style>
<g id="Capa_1">
	<path class="st0" d="M46.1,119.8c0,0-2.5,1.3,0.4,4.4c2.9,3.2,63.8,36.7,63.8,36.7s5,2.6,8.8,0l55.5-32.5c0,0,1.4-2.1-1.5-3.6
		l-63.8-36.9c0,0-3.2-2.5-7.5,0S46.1,119.8,46.1,119.8z"/>
	
		<linearGradient id="SVGID_1_" gradientUnits="userSpaceOnUse" x1="45.0986" y1="70.0778" x2="174.9378" y2="70.0778" gradientTransform="matrix(1 0 0 -1 0 178)">
		<stop  offset="0" style="stop-color:#4F3E90"/>
		<stop  offset="1" style="stop-color:#171A31"/>
	</linearGradient>
	<path class="st1" d="M46.1,103.3c0,0-2.5,1.3,0.4,4.4c2.9,3.2,63.8,36.7,63.8,36.7s5,2.6,8.8,0l55.5-32.5c0,0,1.4-2.1-1.5-3.6
		l-63.8-36.9c0,0-3.2-2.5-7.5,0S46.1,103.3,46.1,103.3z"/>
	
		<linearGradient id="SVGID_00000112602059202665990290000012235199882306675844_" gradientUnits="userSpaceOnUse" x1="45.1" y1="48.9089" x2="174.9472" y2="48.9089" gradientTransform="matrix(1 0 0 -1 0 178)">
		<stop  offset="0" style="stop-color:#463780"/>
		<stop  offset="0.1433" style="stop-color:#382E68"/>
		<stop  offset="0.3308" style="stop-color:#292550"/>
		<stop  offset="0.5289" style="stop-color:#1F1F3F"/>
		<stop  offset="0.7426" style="stop-color:#191B34"/>
		<stop  offset="1" style="stop-color:#171A31"/>
	</linearGradient>
	<path style="fill:url(#SVGID_00000112602059202665990290000012235199882306675844_);" d="M45.1,112.4v-7.6c0,0,0,2,2.2,3.6
		c2.3,1.5,17.7,10.7,17.7,10.7l23.1,13l21.9,12.2c0,0,4.9,2.7,8.8,0.4s55.8-32.7,55.8-32.7s0.5-0.7,0.3-1.8v8.2c0,0.7-0.4,1.4-1,1.7
		l-54.4,31.7c0,0-5.5,4.1-10.9-0.9l-62.5-36.6C45.5,113.9,45.1,113.1,45.1,112.4L45.1,112.4z"/>
	
		<linearGradient id="SVGID_00000172421065400893226610000010584329347206477982_" gradientUnits="userSpaceOnUse" x1="45.0986" y1="88.0778" x2="174.9378" y2="88.0778" gradientTransform="matrix(1 0 0 -1 0 178)">
		<stop  offset="0" style="stop-color:#4F3E90"/>
		<stop  offset="1" style="stop-color:#171A31"/>
	</linearGradient>
	<path style="fill:url(#SVGID_00000172421065400893226610000010584329347206477982_);" d="M46.1,85.3c0,0-2.5,1.3,0.4,4.4
		c2.9,3.2,63.8,36.7,63.8,36.7s5,2.6,8.8,0l55.5-32.5c0,0,1.4-2.1-1.5-3.6l-63.8-36.9c0,0-3.2-2.5-7.5,0S46.1,85.3,46.1,85.3z"/>
	
		<linearGradient id="SVGID_00000142878362725825333070000007701141131126341051_" gradientUnits="userSpaceOnUse" x1="45.1" y1="66.9089" x2="174.9472" y2="66.9089" gradientTransform="matrix(1 0 0 -1 0 178)">
		<stop  offset="0" style="stop-color:#463780"/>
		<stop  offset="0.1433" style="stop-color:#382E68"/>
		<stop  offset="0.3308" style="stop-color:#292550"/>
		<stop  offset="0.5289" style="stop-color:#1F1F3F"/>
		<stop  offset="0.7426" style="stop-color:#191B34"/>
		<stop  offset="1" style="stop-color:#171A31"/>
	</linearGradient>
	<path style="fill:url(#SVGID_00000142878362725825333070000007701141131126341051_);" d="M45.1,94.4v-7.6c0,0,0,2,2.2,3.6
		S65,101.1,65,101.1l23.1,13l21.9,12.2c0,0,4.9,2.7,8.8,0.4S174.6,94,174.6,94s0.5-0.7,0.3-1.8v8.2c0,0.7-0.4,1.4-1,1.7l-54.4,31.7
		c0,0-5.5,4.1-10.9-0.9L46.1,96.3C45.5,95.9,45.1,95.1,45.1,94.4L45.1,94.4z"/>
	
		<linearGradient id="SVGID_00000034772362811142221100000016319053429158061450_" gradientUnits="userSpaceOnUse" x1="45.0986" y1="106.0778" x2="174.9378" y2="106.0778" gradientTransform="matrix(1 0 0 -1 0 178)">
		<stop  offset="0" style="stop-color:#4F3E90"/>
		<stop  offset="1" style="stop-color:#171A31"/>
	</linearGradient>
	<path style="fill:url(#SVGID_00000034772362811142221100000016319053429158061450_);" d="M46.1,67.3c0,0-2.5,1.3,0.4,4.4
		c2.9,3.2,63.8,36.7,63.8,36.7s5,2.6,8.8,0l55.5-32.5c0,0,1.4-2.1-1.5-3.6l-63.8-36.9c0,0-3.2-2.5-7.5,0S46.1,67.3,46.1,67.3z"/>
	
		<linearGradient id="SVGID_00000009581179779370661480000010873645883946549148_" gradientUnits="userSpaceOnUse" x1="45.1" y1="84.9089" x2="174.9472" y2="84.9089" gradientTransform="matrix(1 0 0 -1 0 178)">
		<stop  offset="0" style="stop-color:#463780"/>
		<stop  offset="0.1433" style="stop-color:#382E68"/>
		<stop  offset="0.3308" style="stop-color:#292550"/>
		<stop  offset="0.5289" style="stop-color:#1F1F3F"/>
		<stop  offset="0.7426" style="stop-color:#191B34"/>
		<stop  offset="1" style="stop-color:#171A31"/>
	</linearGradient>
	<path style="fill:url(#SVGID_00000009581179779370661480000010873645883946549148_);" d="M45.1,76.4v-7.6c0,0,0,2,2.2,3.6
		S65,83.1,65,83.1l23.1,13l21.9,12.2c0,0,4.9,2.7,8.8,0.4S174.6,76,174.6,76s0.5-0.7,0.3-1.8v8.2c0,0.7-0.4,1.4-1,1.7l-54.4,31.7
		c0,0-5.5,4.1-10.9-0.9L46.1,78.3C45.5,77.9,45.1,77.1,45.1,76.4L45.1,76.4z"/>
	
		<linearGradient id="SVGID_00000105390356135033827380000012883666925013042860_" gradientUnits="userSpaceOnUse" x1="103.1733" y1="74.7386" x2="119.9921" y2="137.5068" gradientTransform="matrix(1 0 0 -1 0 178)">
		<stop  offset="0" style="stop-color:#4F3E90;stop-opacity:0.6"/>
		<stop  offset="1" style="stop-color:#171ABF;stop-opacity:0.4"/>
	</linearGradient>
	<path style="opacity:0.25;fill:url(#SVGID_00000105390356135033827380000012883666925013042860_);enable-background:new    ;" d="
		M52.9,67.6c0,0-2.3,1.1,0.4,4.1c2.7,2.9,58.6,33.7,58.6,33.7s4.6,2.4,8,0l51-29.8c0,0,1.3-2-1.4-3.3l-58.6-33.9c0,0-2.9-2.3-6.9,0
		C100.1,40.6,52.9,67.6,52.9,67.6z"/>
	<g>
		
			<linearGradient id="SVGID_00000119098103895079490900000016185876172041793979_" gradientUnits="userSpaceOnUse" x1="45.0986" y1="124.0778" x2="174.9378" y2="124.0778" gradientTransform="matrix(1 0 0 -1 0 178)">
			<stop  offset="0" style="stop-color:#4F3E90"/>
			<stop  offset="1" style="stop-color:#171A31"/>
		</linearGradient>
		<path style="fill:url(#SVGID_00000119098103895079490900000016185876172041793979_);" d="M46.1,49.3c0,0-2.5,1.3,0.4,4.4
			c2.9,3.2,63.8,36.7,63.8,36.7s5,2.6,8.8,0l55.5-32.5c0,0,1.4-2.1-1.5-3.6l-63.8-36.9c0,0-3.2-2.5-7.5,0S46.1,49.3,46.1,49.3z"/>
		
			<linearGradient id="SVGID_00000052098873832871893770000007024496913411304330_" gradientUnits="userSpaceOnUse" x1="45.1" y1="102.9089" x2="174.9472" y2="102.9089" gradientTransform="matrix(1 0 0 -1 0 178)">
			<stop  offset="0" style="stop-color:#463780"/>
			<stop  offset="0.1433" style="stop-color:#382E68"/>
			<stop  offset="0.3308" style="stop-color:#292550"/>
			<stop  offset="0.5289" style="stop-color:#1F1F3F"/>
			<stop  offset="0.7426" style="stop-color:#191B34"/>
			<stop  offset="1" style="stop-color:#171A31"/>
		</linearGradient>
		<path style="fill:url(#SVGID_00000052098873832871893770000007024496913411304330_);" d="M45.1,58.4v-7.6c0,0,0,2,2.2,3.6
			S65,65.1,65,65.1l23.1,13L110,90.3c0,0,4.9,2.7,8.8,0.4S174.6,58,174.6,58s0.5-0.7,0.3-1.8v8.2c0,0.7-0.4,1.4-1,1.7l-54.4,31.7
			c0,0-5.5,4.1-10.9-0.9L46.1,60.3C45.5,59.9,45.1,59.1,45.1,58.4L45.1,58.4z"/>
	</g>
</g>
<g id="Capa_2">
	<g id="XMLID_00000109709201082641804850000006661412059432279957_">
		
			<linearGradient id="SVGID_00000112616112844631572880000002964315598751414695_" gradientUnits="userSpaceOnUse" x1="74.0549" y1="39.0114" x2="95.3611" y2="39.0114">
			<stop  offset="0" style="stop-color:#7F00FF"/>
			<stop  offset="1" style="stop-color:#3F00FC"/>
		</linearGradient>
		<polyline style="fill:url(#SVGID_00000112616112844631572880000002964315598751414695_);" points="95.4,38.4 93.2,37.1 88.5,39.8 
			83.3,36.8 88,34.1 85.8,32.8 74.1,39.6 76.2,40.9 81.5,37.9 86.7,40.9 81.5,43.9 83.7,45.2 95.4,38.4 		"/>
		
			<linearGradient id="SVGID_00000032644018377869349650000003019768475685224587_" gradientUnits="userSpaceOnUse" x1="87.1446" y1="44.6032" x2="106.2648" y2="44.6032">
			<stop  offset="0" style="stop-color:#7F00FF"/>
			<stop  offset="1" style="stop-color:#3F00FC"/>
		</linearGradient>
		<path style="fill:url(#SVGID_00000032644018377869349650000003019768475685224587_);" d="M106.3,44.7l-2.2-1.3l-6.8,4
			c-2.4,1.4-4.2,1.3-5.9,0.3c-1.7-1-1.8-2,0.6-3.4l6.8-4l-2.2-1.3l-6.8,4c-3.6,2.1-3.1,4.1-0.3,5.8c2.8,1.6,6.4,1.9,10-0.2
			L106.3,44.7"/>
		
			<linearGradient id="SVGID_00000159453660526517913680000002905929152751890063_" gradientUnits="userSpaceOnUse" x1="95.7481" y1="51.5925" x2="117.2501" y2="51.5925">
			<stop  offset="0" style="stop-color:#7F00FF"/>
			<stop  offset="1" style="stop-color:#3F00FC"/>
		</linearGradient>
		<path style="fill:url(#SVGID_00000159453660526517913680000002905929152751890063_);" d="M117.3,51l-2.2-1.3l-7.1,4.2
			c-0.2,0.1-0.5,0.3-0.6,0.5l2.1-7.9l-1.9-1.1l-11.7,6.8l2.2,1.3l7.4-4.3c0.1-0.1,0.3-0.2,0.4-0.3l-2,7.9l1.9,1.1L117.3,51"/>
		
			<linearGradient id="SVGID_00000054267576447017321400000013766269951959661957_" gradientUnits="userSpaceOnUse" x1="106.8151" y1="55.7877" x2="124.7741" y2="55.7877">
			<stop  offset="0" style="stop-color:#7F00FF"/>
			<stop  offset="1" style="stop-color:#3F00FC"/>
		</linearGradient>
		<path style="fill:url(#SVGID_00000054267576447017321400000013766269951959661957_);" d="M114.9,56.4l3.9-2.3l1.8,1
			c1.4,0.8,1.5,1.6,0.3,2.3c-1.3,0.8-2.7,0.8-4.2,0L114.9,56.4 M122.5,54.1l-4-2.3l-11.7,6.8l2.2,1.3l3.7-2.1
			c0.1-0.1,0.2-0.2,0.3-0.3l1.9,1.1c3,1.8,6.2,1.5,8.3,0.3C125.3,57.5,125.5,55.8,122.5,54.1"/>
		
			<linearGradient id="SVGID_00000022530904050759561500000012581190613538752187_" gradientUnits="userSpaceOnUse" x1="113.7301" y1="63.4845" x2="131.946" y2="63.4845">
			<stop  offset="0" style="stop-color:#7F00FF"/>
			<stop  offset="1" style="stop-color:#3F00FC"/>
		</linearGradient>
		<path style="fill:url(#SVGID_00000022530904050759561500000012581190613538752187_);" d="M122.4,62l4.7-1.3
			c0.4-0.1,0.9-0.3,1.2-0.4c-0.2,0.1-0.5,0.4-0.7,0.7l-2.3,2.7L122.4,62 M131.9,59.5l-2.2-1.3l-16,4.3l2.3,1.3l4-1.1l4.1,2.4l-2,2.3
			l2.3,1.3L131.9,59.5"/>
		
			<linearGradient id="SVGID_00000092425929262036235780000009232624199842117559_" gradientUnits="userSpaceOnUse" x1="125.827" y1="67.9578" x2="143.9572" y2="67.9578">
			<stop  offset="0" style="stop-color:#7F00FF"/>
			<stop  offset="1" style="stop-color:#3F00FC"/>
		</linearGradient>
		<path style="fill:url(#SVGID_00000092425929262036235780000009232624199842117559_);" d="M129.9,69.7l8-4.7l1.4,0.8
			c2.5,1.4,2.3,2.8-0.3,4.3c-2.7,1.6-5.3,1.7-7.8,0.3L129.9,69.7 M141.1,64.8l-3.6-2.1l-11.7,6.8l3.6,2.1c4.3,2.5,8.6,1.8,11.8-0.1
			C144.5,69.6,145.3,67.2,141.1,64.8"/>
	</g>
</g>
</svg>
