<?xml version="1.0" encoding="utf-8"?>
<!-- Generator: Adobe Illustrator 26.0.0, SVG Export Plug-In . SVG Version: 6.00 Build 0)  -->
<svg version="1.1" xmlns="http://www.w3.org/2000/svg" xmlns:xlink="http://www.w3.org/1999/xlink" x="0px" y="0px"
	 viewBox="0 0 512 512" style="enable-background:new 0 0 512 512;" xml:space="preserve">
<style type="text/css">
	.st0{fill:none;stroke:url(#SVGID_1_);stroke-width:3;stroke-linecap:round;stroke-linejoin:round;stroke-miterlimit:10;}
	.st1{opacity:0.2;fill:#1E1A21;enable-background:new    ;}
	.st2{fill:url(#SVGID_00000124872087754270427750000003174488336823622064_);}
	.st3{fill:url(#SVGID_00000133518720577257989340000010294835143696809370_);}
	.st4{fill:url(#SVGID_00000143590260079314364600000001055771286996649661_);}
	.st5{opacity:0.2;fill:#2E3191;enable-background:new    ;}
	.st6{fill:url(#SVGID_00000176723703702725328480000010812293151168975551_);}
	.st7{fill:url(#SVGID_00000054961581236091465920000009584488135903130787_);}
	.st8{fill:url(#SVGID_00000160160420010824408780000002607774082306034087_);}
	.st9{fill:#031653;}
	.st10{fill:url(#SVGID_00000067920771869269002600000002591531931024751768_);}
	.st11{fill:url(#SVGID_00000095319803626222954460000002446231908642721983_);}
	.st12{fill:url(#SVGID_00000050654061309197082210000001593393176554039700_);}
	.st13{fill:url(#SVGID_00000124869508615490753860000007465646214429517723_);}
	.st14{fill:url(#SVGID_00000011719909195007241220000012858377548871923619_);}
	.st15{fill:url(#SVGID_00000121249709033715532340000012293940419674678669_);}
	.st16{opacity:0.25;fill:url(#SVGID_00000157988529291589982420000001818764861058374041_);enable-background:new    ;}
	.st17{fill:url(#SVGID_00000085230706401536991720000004555560541084479418_);}
	.st18{fill:url(#SVGID_00000021110457142309697400000006146996550767403423_);}
	.st19{fill:url(#SVGID_00000165913063915988533160000003893719913393491380_);}
	.st20{fill:url(#SVGID_00000022551323845751844280000013252905429147815564_);}
	.st21{fill:url(#SVGID_00000162321149884350699650000004203199550458456746_);}
	.st22{fill:url(#SVGID_00000052787692125831117630000014090257903332327809_);}
	.st23{fill:url(#SVGID_00000173859941001553631470000000671535569437603504_);}
	.st24{fill:url(#SVGID_00000010994355945387185060000015667256106619895965_);}
</style>
<g id="Capa_1">
	<g>
		<path class="st1" d="M349.4,312.1l57.2,2.5c0,0,8.9-1.3,14-7.1c5-5.8-1.2-21.6-12-25.4c-10.9-3.7-88.3-7.7-88.3-7.7L349.4,312.1z"
			/>
		<g>
			
				<linearGradient id="SVGID_1_" gradientUnits="userSpaceOnUse" x1="-235.3527" y1="253.9443" x2="-234.7298" y2="254.6655" gradientTransform="matrix(123.428 0 0 179.065 29338.3535 -45298.9883)">
				<stop  offset="0" style="stop-color:#463780"/>
				<stop  offset="0.1433" style="stop-color:#382E68"/>
				<stop  offset="0.3308" style="stop-color:#292550"/>
				<stop  offset="0.5289" style="stop-color:#1F1F3F"/>
				<stop  offset="0.7426" style="stop-color:#191B34"/>
				<stop  offset="1" style="stop-color:#171A31"/>
			</linearGradient>
			<path style="fill:url(#SVGID_1_);" d="M361.5,212.1l-67.8-38c-1.9-1-3.6-1-4.7-0.3l-16.6,9.7l3.2,2.7l11.7,8.4v58.6
				c0,3.9,2.9,8.8,6.5,10.9l56,31.4l-1.3,14.1l1,2.7l16.8-9.7l0,0c1.2-0.6,1.9-2.1,1.9-4v-75.4C368,219,365.1,214.1,361.5,212.1z"/>
			
				<linearGradient id="SVGID_00000031206144685931589780000002679158115655674283_" gradientUnits="userSpaceOnUse" x1="-235.2125" y1="254.1093" x2="-234.4966" y2="254.8735" gradientTransform="matrix(107.17 0 0 168.6487 25482.6406 -42673.375)">
				<stop  offset="0" style="stop-color:#268ECD"/>
				<stop  offset="0.3644" style="stop-color:#0974F9"/>
				<stop  offset="0.5403" style="stop-color:#1195F7"/>
				<stop  offset="0.6698" style="stop-color:#076CF9"/>
				<stop  offset="1" style="stop-color:#325FAC"/>
			</linearGradient>
			<path style="fill:url(#SVGID_00000031206144685931589780000002679158115655674283_);" d="M272.7,260.6c0,3.9,2.9,8.8,6.5,10.9
				l67.7,41.1c2.2,0.5,6.6-2.7,6.6-6.7v-74.2c0-4.6-3.5-10-7-11.9l-66.9-37.2c-3.9-2.1-9.1,1-9.1,5.1L272.7,260.6z"/>
			
				<linearGradient id="SVGID_00000048462227465942919490000013395631527739122072_" gradientUnits="userSpaceOnUse" x1="-234.5689" y1="254.936" x2="-235.0652" y2="254.1116" gradientTransform="matrix(104.176 0 0 167.1217 24773.0645 -42288.6836)">
				<stop  offset="0" style="stop-color:#4F3E90"/>
				<stop  offset="1" style="stop-color:#171A31"/>
			</linearGradient>
			<path style="fill:url(#SVGID_00000048462227465942919490000013395631527739122072_);" d="M270.4,262.9c0,3.9,2.9,8.8,6.5,10.9
				l67.8,38c3.6,2,6.5,0.3,6.5-3.6v-75.4c0-3.9-2.9-8.8-6.5-10.9l-67.8-38c-3.6-2-6.5-0.3-6.5,3.6L270.4,262.9L270.4,262.9z"/>
			<path class="st5" d="M303,189.1l8.6-5l-7.9-4.4l-1.7,5.9L303,189.1z M346.9,213.7l8.6-4.9l-7.9-4.5l-1.7,5.9L346.9,213.7z"/>
			
				<linearGradient id="SVGID_00000064356247432732562190000001498287944761185970_" gradientUnits="userSpaceOnUse" x1="-234.482" y1="257.0795" x2="-233.7079" y2="257.0795" gradientTransform="matrix(71.661 0 0 94.1923 17096.3145 -24036.7578)">
				<stop  offset="0" style="stop-color:#D5E8F1"/>
				<stop  offset="1" style="stop-color:#94BCFF"/>
			</linearGradient>
			<path style="fill:url(#SVGID_00000064356247432732562190000001498287944761185970_);" d="M348.6,190.4
				c0-17.7-10.9-37.7-24.8-45.5c-7.1-4-14.3-4.3-20.2-1.1c-6.7,3.7-10.5,11.7-10.5,22V187h0.1c0.1,0.8,0.6,1.6,1.7,2.2
				c2.2,1.3,6,1.3,8.2,0c1.2-0.7,1.8-1.7,1.7-2.7v-20.7c0-6,1.7-10.6,4.7-12.3c2.7-1.5,6.1-0.2,8.5,1.1c10.3,5.8,19,22.1,19,35.8
				v21.1c0.1,0.8,0.6,1.6,1.7,2.2c2.2,1.3,6,1.3,8.2,0c1.1-0.6,1.7-1.4,1.7-2.2L348.6,190.4C348.7,190.4,348.6,190.4,348.6,190.4z"
				/>
			<path class="st5" d="M328.6,148.2c10.2,11.3,17.2,27.9,17.2,43.1v22.9c0.4-0.2,0.8-0.3,1.2-0.5c1.1-0.6,1.7-1.4,1.7-2.2v-21.2
				C348.6,174.8,340.1,157.4,328.6,148.2L328.6,148.2z M306.7,152.9c-3.6,2-5.6,7.5-5.6,14.8v22.2c0.7-0.2,1.5-0.4,2.1-0.7
				c1.2-0.7,1.8-1.7,1.7-2.7v-20.7c0-6,1.7-10.6,4.7-12.3c2-1.1,4.4-0.7,6.5,0.2C313.2,152.3,309.6,151.2,306.7,152.9L306.7,152.9z"
				/>
			
				<linearGradient id="SVGID_00000038387534631968990340000008714091717487651499_" gradientUnits="userSpaceOnUse" x1="-227.0801" y1="265.2057" x2="-226.3038" y2="265.8528" gradientTransform="matrix(17.861 0 0 35.9945 4359.084 -9311.1582)">
				<stop  offset="5.148000e-02" style="stop-color:#BEB3ED"/>
				<stop  offset="0.1809" style="stop-color:#E4E0FF"/>
				<stop  offset="0.3754" style="stop-color:#DED5F9"/>
				<stop  offset="0.4362" style="stop-color:#DED5F9"/>
				<stop  offset="0.4851" style="stop-color:#A89AE4"/>
				<stop  offset="0.7084" style="stop-color:#957EDC"/>
				<stop  offset="1" style="stop-color:#6E70C5"/>
			</linearGradient>
			<path style="fill:url(#SVGID_00000038387534631968990340000008714091717487651499_);" d="M310.3,234c-3.8-2.2-6.9-0.4-6.9,3.9
				c0,3,1.5,6.4,3.6,8.8v9.3c0,1.6,1.3,3.6,3,4.5s3,0.4,3-1.2v-9c2.5,0.2,4.2-1.5,4.2-4.7C317.2,241.3,314.1,236.1,310.3,234z"/>
			
				<linearGradient id="SVGID_00000067213447961833391110000008506579509498445998_" gradientUnits="userSpaceOnUse" x1="-227.0801" y1="265.2057" x2="-226.3038" y2="265.8528" gradientTransform="matrix(17.861 0 0 35.9945 4359.084 -9311.1582)">
				<stop  offset="0" style="stop-color:#4F3E90"/>
				<stop  offset="1" style="stop-color:#171A31"/>
			</linearGradient>
			<path style="fill:url(#SVGID_00000067213447961833391110000008506579509498445998_);" d="M310.3,234c-3.8-2.2-6.9-0.4-6.9,3.9
				c0,3,1.5,6.4,3.6,8.8v9.3c0,1.6,1.3,3.6,3,4.5s3,0.4,3-1.2v-9c2.5,0.2,4.2-1.5,4.2-4.7C317.2,241.3,314.1,236.1,310.3,234z"/>
			<path class="st9" d="M313,250.3v9.1l-0.5-0.2c-1.7-0.9-3-3-3-4.5v-9.3c-2.2-2.5-3.6-5.9-3.6-8.8c0-1.4,0.3-2.6,1-3.4
				c1-0.1,2.2,0.2,3.5,0.9c3.8,2.2,6.9,7.3,6.9,11.6c0,1.4-0.3,2.6-1,3.4h-0.8L313,250.3L313,250.3z"/>
		</g>
		<g>
			<path class="st1" d="M91.2,304.6c0,0-3.9,1.9,0.6,6.9c4.5,4.9,99.3,57.1,99.3,57.1s7.8,4.1,13.6,0L291,318c0,0,2.2-3.3-2.4-5.6
				L189.5,255c0,0-5-3.9-11.7,0S91.2,304.6,91.2,304.6z"/>
			
				<linearGradient id="SVGID_00000085249125341940071600000002298760124284334489_" gradientUnits="userSpaceOnUse" x1="89.6316" y1="227.8556" x2="291.5258" y2="227.8556" gradientTransform="matrix(1 0 0 -1 0 514)">
				<stop  offset="0" style="stop-color:#4F3E90"/>
				<stop  offset="1" style="stop-color:#171A31"/>
			</linearGradient>
			<path style="fill:url(#SVGID_00000085249125341940071600000002298760124284334489_);" d="M91.2,278.9c0,0-3.9,1.9,0.6,6.9
				c4.5,4.9,99.3,57.1,99.3,57.1s7.8,4.1,13.6,0l86.3-50.6c0,0,2.2-3.3-2.4-5.6l-99.2-57.4c0,0-5-3.9-11.7,0
				C171.1,233.2,91.2,278.9,91.2,278.9z"/>
			
				<linearGradient id="SVGID_00000146479125373082897200000002908958291388337550_" gradientUnits="userSpaceOnUse" x1="89.6997" y1="194.9264" x2="291.8673" y2="194.9264" gradientTransform="matrix(1 0 0 -1 0 514)">
				<stop  offset="0" style="stop-color:#463780"/>
				<stop  offset="0.1433" style="stop-color:#382E68"/>
				<stop  offset="0.3308" style="stop-color:#292550"/>
				<stop  offset="0.5289" style="stop-color:#1F1F3F"/>
				<stop  offset="0.7426" style="stop-color:#191B34"/>
				<stop  offset="1" style="stop-color:#171A31"/>
			</linearGradient>
			<path style="fill:url(#SVGID_00000146479125373082897200000002908958291388337550_);" d="M89.7,293.1v-11.8c0,0-0.1,3.2,3.5,5.5
				c3.6,2.4,27.6,16.6,27.6,16.6l35.9,20.3l34.1,18.9c0,0,7.6,4.2,13.7,0.6c6.1-3.6,86.8-50.8,86.8-50.8s0.8-1,0.5-2.8v12.7
				c0,1.1-0.6,2.1-1.5,2.7l-84.6,49.4c0,0-8.6,6.4-17-1.5L91.5,296C90.3,295.4,89.7,294.3,89.7,293.1L89.7,293.1z"/>
			
				<linearGradient id="SVGID_00000102502680346800551120000006293899510507241881_" gradientUnits="userSpaceOnUse" x1="89.6316" y1="255.8556" x2="291.5258" y2="255.8556" gradientTransform="matrix(1 0 0 -1 0 514)">
				<stop  offset="0" style="stop-color:#4F3E90"/>
				<stop  offset="1" style="stop-color:#171A31"/>
			</linearGradient>
			<path style="fill:url(#SVGID_00000102502680346800551120000006293899510507241881_);" d="M91.2,250.9c0,0-3.9,1.9,0.6,6.9
				c4.5,4.9,99.3,57.1,99.3,57.1s7.8,4.1,13.6,0l86.3-50.6c0,0,2.2-3.3-2.4-5.6l-99.2-57.4c0,0-5-3.9-11.7,0
				C171.1,205.2,91.2,250.9,91.2,250.9z"/>
			
				<linearGradient id="SVGID_00000001663998620256963060000005518353192856931727_" gradientUnits="userSpaceOnUse" x1="89.6997" y1="222.9264" x2="291.8673" y2="222.9264" gradientTransform="matrix(1 0 0 -1 0 514)">
				<stop  offset="0" style="stop-color:#463780"/>
				<stop  offset="0.1433" style="stop-color:#382E68"/>
				<stop  offset="0.3308" style="stop-color:#292550"/>
				<stop  offset="0.5289" style="stop-color:#1F1F3F"/>
				<stop  offset="0.7426" style="stop-color:#191B34"/>
				<stop  offset="1" style="stop-color:#171A31"/>
			</linearGradient>
			<path style="fill:url(#SVGID_00000001663998620256963060000005518353192856931727_);" d="M89.7,265.1v-11.8c0,0-0.1,3.2,3.5,5.5
				c3.6,2.4,27.6,16.6,27.6,16.6l35.9,20.3l34.1,18.9c0,0,7.6,4.2,13.7,0.6c6.1-3.6,86.8-50.8,86.8-50.8s0.8-1,0.5-2.8v12.7
				c0,1.1-0.6,2.1-1.5,2.7l-84.6,49.4c0,0-8.6,6.4-17-1.5L91.5,268C90.3,267.4,89.7,266.3,89.7,265.1L89.7,265.1z"/>
			
				<linearGradient id="SVGID_00000154410878744017134270000007095694425072861577_" gradientUnits="userSpaceOnUse" x1="89.6316" y1="283.8556" x2="291.5258" y2="283.8556" gradientTransform="matrix(1 0 0 -1 0 514)">
				<stop  offset="0" style="stop-color:#4F3E90"/>
				<stop  offset="1" style="stop-color:#171A31"/>
			</linearGradient>
			<path style="fill:url(#SVGID_00000154410878744017134270000007095694425072861577_);" d="M91.2,222.9c0,0-3.9,1.9,0.6,6.9
				c4.5,4.9,99.3,57.1,99.3,57.1s7.8,4.1,13.6,0l86.3-50.6c0,0,2.2-3.3-2.4-5.6l-99.2-57.4c0,0-5-3.9-11.7,0
				C171.1,177.2,91.2,222.9,91.2,222.9z"/>
			
				<linearGradient id="SVGID_00000085932069019226041720000012927922356326161560_" gradientUnits="userSpaceOnUse" x1="89.6997" y1="250.9264" x2="291.8673" y2="250.9264" gradientTransform="matrix(1 0 0 -1 0 514)">
				<stop  offset="0" style="stop-color:#463780"/>
				<stop  offset="0.1433" style="stop-color:#382E68"/>
				<stop  offset="0.3308" style="stop-color:#292550"/>
				<stop  offset="0.5289" style="stop-color:#1F1F3F"/>
				<stop  offset="0.7426" style="stop-color:#191B34"/>
				<stop  offset="1" style="stop-color:#171A31"/>
			</linearGradient>
			<path style="fill:url(#SVGID_00000085932069019226041720000012927922356326161560_);" d="M89.7,237.1v-11.8c0,0-0.1,3.2,3.5,5.5
				c3.6,2.4,27.6,16.6,27.6,16.6l35.9,20.3l34.1,18.9c0,0,7.6,4.2,13.7,0.6c6.1-3.6,86.8-50.8,86.8-50.8s0.8-1,0.5-2.8v12.7
				c0,1.1-0.6,2.1-1.5,2.7l-84.6,49.4c0,0-8.6,6.4-17-1.5L91.5,240C90.3,239.4,89.7,238.3,89.7,237.1L89.7,237.1z"/>
			
				<linearGradient id="SVGID_00000005957119733330691790000016542784365742252725_" gradientUnits="userSpaceOnUse" x1="180.1236" y1="235.1035" x2="206.2902" y2="332.7586" gradientTransform="matrix(1 0 0 -1 0 514)">
				<stop  offset="0" style="stop-color:#4F3E90;stop-opacity:0.6"/>
				<stop  offset="1" style="stop-color:#171ABF;stop-opacity:0.4"/>
			</linearGradient>
			
				<path style="opacity:0.25;fill:url(#SVGID_00000005957119733330691790000016542784365742252725_);enable-background:new    ;" d="
				M101.9,223.5c0,0-3.6,1.8,0.6,6.3s91.2,52.4,91.2,52.4s7.1,3.8,12.5,0l79.3-46.4c0,0,2-3-2.2-5.2L192.2,178c0,0-4.6-3.6-10.7,0
				C175.3,181.6,101.9,223.5,101.9,223.5z"/>
			<g>
				
					<linearGradient id="SVGID_00000036243421235613195800000014898758639594271122_" gradientUnits="userSpaceOnUse" x1="89.6316" y1="311.8556" x2="291.5258" y2="311.8556" gradientTransform="matrix(1 0 0 -1 0 514)">
					<stop  offset="0" style="stop-color:#4F3E90"/>
					<stop  offset="1" style="stop-color:#171A31"/>
				</linearGradient>
				<path style="fill:url(#SVGID_00000036243421235613195800000014898758639594271122_);" d="M91.2,194.9c0,0-3.9,1.9,0.6,6.9
					c4.5,4.9,99.3,57.1,99.3,57.1s7.8,4.1,13.6,0l86.3-50.6c0,0,2.2-3.3-2.4-5.6l-99.2-57.4c0,0-5-3.9-11.7,0
					C171.1,149.2,91.2,194.9,91.2,194.9z"/>
				
					<linearGradient id="SVGID_00000099657567983609299100000004337464339276620712_" gradientUnits="userSpaceOnUse" x1="89.6997" y1="278.9264" x2="291.8673" y2="278.9264" gradientTransform="matrix(1 0 0 -1 0 514)">
					<stop  offset="0" style="stop-color:#463780"/>
					<stop  offset="0.1433" style="stop-color:#382E68"/>
					<stop  offset="0.3308" style="stop-color:#292550"/>
					<stop  offset="0.5289" style="stop-color:#1F1F3F"/>
					<stop  offset="0.7426" style="stop-color:#191B34"/>
					<stop  offset="1" style="stop-color:#171A31"/>
				</linearGradient>
				<path style="fill:url(#SVGID_00000099657567983609299100000004337464339276620712_);" d="M89.7,209.1v-11.8c0,0-0.1,3.2,3.5,5.5
					c3.6,2.4,27.6,16.6,27.6,16.6l35.9,20.3l34.1,18.9c0,0,7.6,4.2,13.7,0.6c6.1-3.6,86.8-50.8,86.8-50.8s0.8-1,0.5-2.8v12.7
					c0,1.1-0.6,2.1-1.5,2.7l-84.6,49.4c0,0-8.6,6.4-17-1.5L91.5,212C90.3,211.4,89.7,210.3,89.7,209.1L89.7,209.1z"/>
			</g>
		</g>
	</g>
</g>
<g id="Capa_2">
	<g id="XMLID_00000109709201082641804850000006661412059432279957_">
		
			<linearGradient id="SVGID_00000116915794827101454790000002362207655708228760_" gradientUnits="userSpaceOnUse" x1="135.7285" y1="176.3122" x2="169.29" y2="176.3122">
			<stop  offset="0" style="stop-color:#7F00FF"/>
			<stop  offset="1" style="stop-color:#3F00FC"/>
		</linearGradient>
		<polyline style="fill:url(#SVGID_00000116915794827101454790000002362207655708228760_);" points="169.3,175.3 165.8,173.3 
			158.5,177.6 150.3,172.8 157.6,168.6 154.2,166.6 135.7,177.3 139.2,179.3 147.5,174.5 155.7,179.2 147.4,184 150.8,186 
			169.3,175.3 		"/>
		
			<linearGradient id="SVGID_00000021807021396363746070000001513844181584779431_" gradientUnits="userSpaceOnUse" x1="156.3475" y1="185.1204" x2="186.4654" y2="185.1204">
			<stop  offset="0" style="stop-color:#7F00FF"/>
			<stop  offset="1" style="stop-color:#3F00FC"/>
		</linearGradient>
		<path style="fill:url(#SVGID_00000021807021396363746070000001513844181584779431_);" d="M186.5,185.2l-3.5-2l-10.8,6.3
			c-3.7,2.2-6.6,2.1-9.4,0.6c-2.7-1.6-2.8-3.2,1-5.4l10.8-6.3l-3.5-2l-10.8,6.3c-5.7,3.3-4.9,6.5-0.5,9.1c4.5,2.6,10.1,3,15.8-0.3
			L186.5,185.2"/>
		
			<linearGradient id="SVGID_00000008122913348306642230000002712231068722306989_" gradientUnits="userSpaceOnUse" x1="169.8997" y1="196.1299" x2="203.7695" y2="196.1299">
			<stop  offset="0" style="stop-color:#7F00FF"/>
			<stop  offset="1" style="stop-color:#3F00FC"/>
		</linearGradient>
		<path style="fill:url(#SVGID_00000008122913348306642230000002712231068722306989_);" d="M203.8,195.2l-3.5-2l-11.3,6.5
			c-0.4,0.2-0.7,0.5-1,0.7l3.2-12.5l-3-1.7L169.9,197l3.5,2l11.6-6.7c0.2-0.1,0.5-0.3,0.6-0.5l-3.2,12.4l3,1.7L203.8,195.2"/>
		
			<linearGradient id="SVGID_00000145741685900692163050000008356314609494267543_" gradientUnits="userSpaceOnUse" x1="187.3324" y1="202.7382" x2="215.6213" y2="202.7382">
			<stop  offset="0" style="stop-color:#7F00FF"/>
			<stop  offset="1" style="stop-color:#3F00FC"/>
		</linearGradient>
		<path style="fill:url(#SVGID_00000145741685900692163050000008356314609494267543_);" d="M200.1,203.7l6.2-3.6l2.8,1.6
			c2.3,1.3,2.4,2.5,0.5,3.7c-2.1,1.2-4.3,1.3-6.6-0.1L200.1,203.7 M212.1,200l-6.3-3.6l-18.4,10.7l3.5,2l5.8-3.3
			c0.2-0.1,0.4-0.4,0.5-0.5l3,1.7c4.8,2.8,9.7,2.3,13.1,0.4C216.5,205.5,216.8,202.7,212.1,200"/>
		
			<linearGradient id="SVGID_00000182489652764398949490000004193038640134563262_" gradientUnits="userSpaceOnUse" x1="198.2249" y1="214.8622" x2="226.9184" y2="214.8622">
			<stop  offset="0" style="stop-color:#7F00FF"/>
			<stop  offset="1" style="stop-color:#3F00FC"/>
		</linearGradient>
		<path style="fill:url(#SVGID_00000182489652764398949490000004193038640134563262_);" d="M212,212.6l7.4-2.1
			c0.6-0.2,1.4-0.5,1.8-0.6c-0.3,0.2-0.8,0.7-1.1,1.1l-3.6,4.3L212,212.6 M226.9,208.6l-3.5-2l-25.2,6.8l3.6,2.1l6.3-1.8l6.5,3.8
			l-3.1,3.6l3.6,2.1L226.9,208.6"/>
		
			<linearGradient id="SVGID_00000018940047726517278350000011145741596634023832_" gradientUnits="userSpaceOnUse" x1="217.2798" y1="221.9085" x2="245.8385" y2="221.9085">
			<stop  offset="0" style="stop-color:#7F00FF"/>
			<stop  offset="1" style="stop-color:#3F00FC"/>
		</linearGradient>
		<path style="fill:url(#SVGID_00000018940047726517278350000011145741596634023832_);" d="M223.6,224.7l12.6-7.3l2.2,1.3
			c3.9,2.2,3.7,4.4-0.4,6.8c-4.3,2.5-8.4,2.8-12.2,0.5L223.6,224.7 M241.4,216.9l-5.6-3.3l-18.4,10.7l5.6,3.3
			c6.7,3.9,13.5,2.8,18.6-0.2C246.7,224.5,247.9,220.7,241.4,216.9"/>
	</g>
</g>
</svg>
