<?xml version="1.0" encoding="utf-8"?>
<!-- Generator: Adobe Illustrator 26.0.0, SVG Export Plug-In . SVG Version: 6.00 Build 0)  -->
<svg version="1.1" xmlns="http://www.w3.org/2000/svg" xmlns:xlink="http://www.w3.org/1999/xlink" x="0px" y="0px"
	 viewBox="0 0 512 512" style="enable-background:new 0 0 512 512;" xml:space="preserve">
<style type="text/css">
	.st0{opacity:0.2;fill:#11081C;enable-background:new    ;}
	.st1{fill:url(#SVGID_1_);}
	.st2{fill:url(#SVGID_00000070806684098085038600000009823243869801765810_);}
	.st3{fill:url(#SVGID_00000173872171640242635270000002140000834261568701_);}
	.st4{fill:url(#SVGID_00000108994564987671269670000016985184437021269912_);}
	.st5{fill:url(#SVGID_00000163060067350986351580000013459074921627125920_);}
	.st6{fill:url(#SVGID_00000060015186735477062390000010856004830800650671_);}
	.st7{fill:url(#SVGID_00000072990086923217344700000015667970735294899595_);}
	.st8{fill:url(#SVGID_00000062889536846503021090000005457288779668821946_);}
	.st9{fill:url(#SVGID_00000096060152885369352270000015972804031436712076_);}
	.st10{fill:url(#SVGID_00000150792131207090755810000003953328697288929946_);}
	.st11{fill:url(#SVGID_00000092417319666990782210000010459558862092427663_);}
	.st12{fill:url(#SVGID_00000032648842268976295350000008508923718890243243_);}
	.st13{fill:url(#SVGID_00000170250559260325175730000009924031163813081018_);}
	.st14{fill:url(#SVGID_00000145041866806179117080000000908691578214646187_);}
	.st15{fill:url(#SVGID_00000166660958179624842790000017918043987442223547_);}
	.st16{fill:url(#SVGID_00000099623694602303972500000002838466387975240617_);}
	.st17{fill:url(#SVGID_00000178171003728082634660000004087328317160848811_);}
	.st18{fill:url(#SVGID_00000159436102182669779280000012567494053152860329_);}
	
		.st19{fill:none;stroke:url(#SVGID_00000027566836775893115590000000374657193468199040_);stroke-width:3;stroke-linecap:round;stroke-linejoin:round;stroke-miterlimit:10;}
	.st20{fill:url(#SVGID_00000126316986198969929120000009901042345281125775_);}
	.st21{fill:url(#SVGID_00000068678427283542432810000018297081515420882094_);}
	.st22{fill:url(#SVGID_00000008112157978517867460000001700426403751580815_);}
	.st23{fill:url(#SVGID_00000114774232920544711960000010912491528953001658_);}
	.st24{fill:url(#SVGID_00000172432582623334391070000007720952554776277694_);}
	.st25{fill:url(#SVGID_00000018916775404035354030000016037533083876499600_);}
</style>
<g id="Capa_1">
	<g>
		<path class="st0" d="M253.2,364.7c0,0,22,19.9,59.7,4.8s84.5-36.2,98.8-44.9c14.2-8.7,24.3-22.2,3.3-25.9S340.1,272,340.1,272
			s-2.1-13.8-8.8-20.5c-6.7-6.7-115.1,11.3-115.1,11.3l-51,29.1L253.2,364.7z"/>
		<g>
			<g>
				<g>
					
						<linearGradient id="SVGID_1_" gradientUnits="userSpaceOnUse" x1="146.2687" y1="221.5056" x2="356.6508" y2="221.5056" gradientTransform="matrix(1 0 0 -1 0 514)">
						<stop  offset="0" style="stop-color:#4F3E90"/>
						<stop  offset="1" style="stop-color:#171A31"/>
					</linearGradient>
					<path class="st1" d="M147.9,284.9c0,0-4.1,2,0.7,7.2c4.7,5.1,103.4,59.5,103.4,59.5s8.1,4.3,14.2,0l89.9-52.7
						c0,0,2.3-3.4-2.5-5.9l-103.3-59.7c0,0-5.2-4.1-12.2,0C231.2,237.3,147.9,284.9,147.9,284.9z"/>
					
						<linearGradient id="SVGID_00000127766315045533169190000003014696119954349697_" gradientUnits="userSpaceOnUse" x1="146.2997" y1="187.3326" x2="356.7673" y2="187.3326" gradientTransform="matrix(1 0 0 -1 0 514)">
						<stop  offset="0" style="stop-color:#463780"/>
						<stop  offset="0.1433" style="stop-color:#382E68"/>
						<stop  offset="0.3308" style="stop-color:#292550"/>
						<stop  offset="0.5289" style="stop-color:#1F1F3F"/>
						<stop  offset="0.7426" style="stop-color:#191B34"/>
						<stop  offset="1" style="stop-color:#171A31"/>
					</linearGradient>
					<path style="fill:url(#SVGID_00000127766315045533169190000003014696119954349697_);" d="M146.3,299.7v-12.3
						c0,0-0.1,3.3,3.6,5.8c3.7,2.5,28.7,17.3,28.7,17.3l37.4,21.1l35.5,19.7c0,0,7.9,4.4,14.3,0.6s90.4-53,90.4-53s0.8-1.1,0.5-2.9
						v13.3c0,1.2-0.6,2.2-1.6,2.8L267,363.4c0,0-8.9,6.6-17.7-1.5l-101.2-59.2C147,302.1,146.3,300.9,146.3,299.7L146.3,299.7z"/>
				</g>
			</g>
			<g id="XMLID_00000117646478981873222350000001973004477956318861_">
				
					<linearGradient id="SVGID_00000050638356683806353360000015703828644125811868_" gradientUnits="userSpaceOnUse" x1="193.2245" y1="266.6152" x2="228.3958" y2="266.6152">
					<stop  offset="0" style="stop-color:#7F00FF"/>
					<stop  offset="1" style="stop-color:#3F00FC"/>
				</linearGradient>
				<polyline style="fill:url(#SVGID_00000050638356683806353360000015703828644125811868_);" points="228.4,265.6 224.8,263.5 
					217.1,267.9 208.5,263 216.2,258.5 212.6,256.4 193.2,267.7 196.8,269.7 205.5,264.7 214.1,269.7 205.4,274.7 209.1,276.8 
					228.4,265.6 				"/>
				
					<linearGradient id="SVGID_00000066496431068012310910000002600113628469483707_" gradientUnits="userSpaceOnUse" x1="214.8325" y1="275.8459" x2="246.3949" y2="275.8459">
					<stop  offset="0" style="stop-color:#7F00FF"/>
					<stop  offset="1" style="stop-color:#3F00FC"/>
				</linearGradient>
				<path style="fill:url(#SVGID_00000066496431068012310910000002600113628469483707_);" d="M246.4,276l-3.6-2.1l-11.3,6.6
					c-3.9,2.3-7,2.2-9.8,0.6c-2.9-1.7-2.9-3.4,1-5.7l11.3-6.6l-3.6-2.1l-11.3,6.6c-6,3.5-5.2,6.8-0.5,9.5c4.7,2.7,10.5,3.2,16.5-0.3
					L246.4,276"/>
				
					<linearGradient id="SVGID_00000003799573280528937660000009771383232215689602_" gradientUnits="userSpaceOnUse" x1="229.0347" y1="287.3835" x2="264.5289" y2="287.3835">
					<stop  offset="0" style="stop-color:#7F00FF"/>
					<stop  offset="1" style="stop-color:#3F00FC"/>
				</linearGradient>
				<path style="fill:url(#SVGID_00000003799573280528937660000009771383232215689602_);" d="M264.5,286.4l-3.6-2.1l-11.8,6.9
					c-0.4,0.2-0.8,0.5-1,0.8l3.4-13.1l-3.1-1.8L229,288.3l3.6,2.1l12.1-7.1c0.2-0.1,0.5-0.3,0.7-0.5l-3.4,13l3.1,1.8L264.5,286.4"/>
				
					<linearGradient id="SVGID_00000028317456326965925240000012469359019422165171_" gradientUnits="userSpaceOnUse" x1="247.3034" y1="294.3087" x2="276.9491" y2="294.3087">
					<stop  offset="0" style="stop-color:#7F00FF"/>
					<stop  offset="1" style="stop-color:#3F00FC"/>
				</linearGradient>
				<path style="fill:url(#SVGID_00000028317456326965925240000012469359019422165171_);" d="M260.7,295.3l6.5-3.8l3,1.7
					c2.4,1.4,2.5,2.6,0.5,3.8c-2.2,1.3-4.5,1.3-7-0.1L260.7,295.3 M273.2,291.4l-6.6-3.8l-19.3,11.2l3.6,2.1l6-3.5
					c0.2-0.1,0.4-0.4,0.5-0.5l3.2,1.8c5,2.9,10.2,2.4,13.7,0.4C277.8,297.2,278.2,294.3,273.2,291.4"/>
				
					<linearGradient id="SVGID_00000087389608577238352160000010711641582602837910_" gradientUnits="userSpaceOnUse" x1="258.7184" y1="307.0141" x2="288.7881" y2="307.0141">
					<stop  offset="0" style="stop-color:#7F00FF"/>
					<stop  offset="1" style="stop-color:#3F00FC"/>
				</linearGradient>
				<path style="fill:url(#SVGID_00000087389608577238352160000010711641582602837910_);" d="M273.1,304.6l7.8-2.2
					c0.6-0.2,1.5-0.5,1.9-0.7c-0.3,0.2-0.8,0.7-1.1,1.1l-3.8,4.5L273.1,304.6 M288.8,300.4l-3.7-2.1l-26.4,7.2l3.8,2.2l6.6-1.9
					l6.8,3.9l-3.2,3.8l3.8,2.2L288.8,300.4"/>
				
					<linearGradient id="SVGID_00000093149719600338415120000013361710127665226931_" gradientUnits="userSpaceOnUse" x1="278.6872" y1="314.3984" x2="308.6157" y2="314.3984">
					<stop  offset="0" style="stop-color:#7F00FF"/>
					<stop  offset="1" style="stop-color:#3F00FC"/>
				</linearGradient>
				<path style="fill:url(#SVGID_00000093149719600338415120000013361710127665226931_);" d="M285.3,317.3l13.2-7.7l2.3,1.3
					c4.1,2.4,3.9,4.7-0.4,7.2c-4.5,2.6-8.8,2.9-12.8,0.5L285.3,317.3 M303.9,309.2l-5.9-3.4L278.7,317l5.9,3.4
					c7,4.1,14.2,2.9,19.5-0.2C309.5,317.1,310.8,313.1,303.9,309.2"/>
			</g>
			<g>
				<g>
					
						<linearGradient id="SVGID_00000103226150285041312500000003549841998280256144_" gradientUnits="userSpaceOnUse" x1="113.0687" y1="266.8056" x2="323.4508" y2="266.8056" gradientTransform="matrix(1 0 0 -1 0 514)">
						<stop  offset="0" style="stop-color:#4F3E90"/>
						<stop  offset="1" style="stop-color:#171A31"/>
					</linearGradient>
					<path style="fill:url(#SVGID_00000103226150285041312500000003549841998280256144_);" d="M114.7,239.6c0,0-4.1,2,0.7,7.2
						s103.4,59.5,103.4,59.5s8.1,4.3,14.2,0l89.9-52.7c0,0,2.3-3.4-2.5-5.9L217.1,188c0,0-5.2-4.1-12.2,0S114.7,239.6,114.7,239.6z"
						/>
					
						<linearGradient id="SVGID_00000160170483473124953060000007184894649237314217_" gradientUnits="userSpaceOnUse" x1="113.0997" y1="232.5826" x2="323.5673" y2="232.5826" gradientTransform="matrix(1 0 0 -1 0 514)">
						<stop  offset="0" style="stop-color:#463780"/>
						<stop  offset="0.1433" style="stop-color:#382E68"/>
						<stop  offset="0.3308" style="stop-color:#292550"/>
						<stop  offset="0.5289" style="stop-color:#1F1F3F"/>
						<stop  offset="0.7426" style="stop-color:#191B34"/>
						<stop  offset="1" style="stop-color:#171A31"/>
					</linearGradient>
					<path style="fill:url(#SVGID_00000160170483473124953060000007184894649237314217_);" d="M113.1,254.4v-12.3
						c0,0-0.1,3.3,3.6,5.8s28.7,17.3,28.7,17.3l37.4,21.1l35.5,19.7c0,0,7.9,4.4,14.3,0.6c6.4-3.8,90.4-53,90.4-53s0.8-1.1,0.5-2.9
						V264c0,1.2-0.6,2.2-1.6,2.8l-88.1,51.4c0,0-8.9,6.6-17.7-1.5l-101.2-59.2C113.8,256.8,113.1,255.7,113.1,254.4L113.1,254.4z"/>
				</g>
			</g>
			<g id="XMLID_00000067232737931685848410000015640074713231641016_">
				
					<linearGradient id="SVGID_00000057864703983657868640000014941252625897636517_" gradientUnits="userSpaceOnUse" x1="158.8117" y1="221.6348" x2="193.9829" y2="221.6348">
					<stop  offset="0" style="stop-color:#7F00FF"/>
					<stop  offset="1" style="stop-color:#3F00FC"/>
				</linearGradient>
				<polyline style="fill:url(#SVGID_00000057864703983657868640000014941252625897636517_);" points="194,220.6 190.4,218.5 
					182.7,222.9 174.1,218 181.8,213.5 178.1,211.4 158.8,222.7 162.4,224.8 171.1,219.7 179.7,224.7 171,229.7 174.7,231.8 
					194,220.6 				"/>
				
					<linearGradient id="SVGID_00000152257541496820377710000000211811567241890465_" gradientUnits="userSpaceOnUse" x1="180.4196" y1="230.8654" x2="211.982" y2="230.8654">
					<stop  offset="0" style="stop-color:#7F00FF"/>
					<stop  offset="1" style="stop-color:#3F00FC"/>
				</linearGradient>
				<path style="fill:url(#SVGID_00000152257541496820377710000000211811567241890465_);" d="M212,231l-3.6-2.1l-11.3,6.6
					c-3.9,2.3-7,2.2-9.8,0.6c-2.9-1.7-2.9-3.4,1-5.7l11.3-6.6l-3.6-2.1l-11.3,6.6c-6,3.5-5.2,6.8-0.5,9.5c4.7,2.7,10.5,3.2,16.5-0.3
					L212,231"/>
				
					<linearGradient id="SVGID_00000163061988970321619120000007765750946738114996_" gradientUnits="userSpaceOnUse" x1="194.6218" y1="242.403" x2="230.116" y2="242.403">
					<stop  offset="0" style="stop-color:#7F00FF"/>
					<stop  offset="1" style="stop-color:#3F00FC"/>
				</linearGradient>
				<path style="fill:url(#SVGID_00000163061988970321619120000007765750946738114996_);" d="M230.1,241.5l-3.6-2.1l-11.8,6.9
					c-0.4,0.2-0.8,0.5-1,0.8l3.4-13.1l-3.1-1.8l-19.3,11.2l3.6,2.1l12.1-7.1c0.2-0.1,0.5-0.3,0.7-0.5l-3.4,13l3.1,1.8L230.1,241.5"
					/>
				
					<linearGradient id="SVGID_00000034050518634305998030000001893395591367608199_" gradientUnits="userSpaceOnUse" x1="212.8905" y1="249.3282" x2="242.5363" y2="249.3282">
					<stop  offset="0" style="stop-color:#7F00FF"/>
					<stop  offset="1" style="stop-color:#3F00FC"/>
				</linearGradient>
				<path style="fill:url(#SVGID_00000034050518634305998030000001893395591367608199_);" d="M226.3,250.3l6.5-3.8l3,1.7
					c2.4,1.4,2.5,2.6,0.5,3.8c-2.2,1.3-4.5,1.3-7-0.1L226.3,250.3 M238.8,246.5l-6.6-3.8l-19.3,11.2l3.6,2.1l6-3.5
					c0.2-0.1,0.4-0.4,0.5-0.5l3.2,1.8c5,2.9,10.2,2.4,13.7,0.4C243.4,252.2,243.8,249.3,238.8,246.5"/>
				
					<linearGradient id="SVGID_00000095325996099176852580000001571404131817196979_" gradientUnits="userSpaceOnUse" x1="224.3055" y1="262.0337" x2="254.3752" y2="262.0337">
					<stop  offset="0" style="stop-color:#7F00FF"/>
					<stop  offset="1" style="stop-color:#3F00FC"/>
				</linearGradient>
				<path style="fill:url(#SVGID_00000095325996099176852580000001571404131817196979_);" d="M238.7,259.6l7.8-2.2
					c0.6-0.2,1.5-0.5,1.9-0.7c-0.3,0.2-0.8,0.7-1.1,1.1l-3.8,4.5L238.7,259.6 M254.4,255.5l-3.7-2.1l-26.4,7.2l3.8,2.2l6.6-1.9
					l6.8,3.9l-3.2,3.8l3.8,2.2L254.4,255.5"/>
				
					<linearGradient id="SVGID_00000062150391803165700920000015801089559052938883_" gradientUnits="userSpaceOnUse" x1="244.2743" y1="269.418" x2="274.2028" y2="269.418">
					<stop  offset="0" style="stop-color:#7F00FF"/>
					<stop  offset="1" style="stop-color:#3F00FC"/>
				</linearGradient>
				<path style="fill:url(#SVGID_00000062150391803165700920000015801089559052938883_);" d="M250.9,272.3l13.2-7.7l2.3,1.3
					c4.1,2.4,3.9,4.7-0.4,7.2c-4.5,2.6-8.8,2.9-12.8,0.5L250.9,272.3 M269.5,264.2l-5.9-3.4L244.3,272l5.9,3.4
					c7,4.1,14.2,2.9,19.5-0.2C275.1,272.1,276.4,268.2,269.5,264.2"/>
			</g>
			<g>
				<g>
					
						<linearGradient id="SVGID_00000018936839577870995190000010487558758004792202_" gradientUnits="userSpaceOnUse" x1="84.9687" y1="316.1056" x2="295.3508" y2="316.1056" gradientTransform="matrix(1 0 0 -1 0 514)">
						<stop  offset="0" style="stop-color:#4F3E90"/>
						<stop  offset="1" style="stop-color:#171A31"/>
					</linearGradient>
					<path style="fill:url(#SVGID_00000018936839577870995190000010487558758004792202_);" d="M86.6,190.3c0,0-4.1,2,0.7,7.2
						S190.7,257,190.7,257s8.1,4.3,14.2,0l89.9-52.7c0,0,2.3-3.4-2.5-5.9L189,138.7c0,0-5.2-4.1-12.2,0
						C169.8,142.7,86.6,190.3,86.6,190.3z"/>
					
						<linearGradient id="SVGID_00000178197136150609320120000016997659132434674311_" gradientUnits="userSpaceOnUse" x1="84.9997" y1="281.8826" x2="295.4673" y2="281.8826" gradientTransform="matrix(1 0 0 -1 0 514)">
						<stop  offset="0" style="stop-color:#463780"/>
						<stop  offset="0.1433" style="stop-color:#382E68"/>
						<stop  offset="0.3308" style="stop-color:#292550"/>
						<stop  offset="0.5289" style="stop-color:#1F1F3F"/>
						<stop  offset="0.7426" style="stop-color:#191B34"/>
						<stop  offset="1" style="stop-color:#171A31"/>
					</linearGradient>
					<path style="fill:url(#SVGID_00000178197136150609320120000016997659132434674311_);" d="M85,205.1v-12.3c0,0-0.1,3.3,3.6,5.8
						s28.7,17.3,28.7,17.3l37.4,21.1l35.5,19.7c0,0,7.9,4.4,14.3,0.6c6.4-3.8,90.4-53,90.4-53s0.8-1.1,0.5-2.9v13.3
						c0,1.2-0.6,2.2-1.6,2.8l-88.1,51.4c0,0-8.9,6.6-17.7-1.5L86.7,208.2C85.7,207.5,85,206.4,85,205.1L85,205.1z"/>
				</g>
			</g>
		</g>
	</g>
</g>
<g id="Capa_2">
	<g id="XMLID_00000109709201082641804850000006661412059432279957_">
		
			<linearGradient id="SVGID_00000163036659340692226900000000037644983988773055_" gradientUnits="userSpaceOnUse" x1="134.3039" y1="169.6877" x2="169.4751" y2="169.6877">
			<stop  offset="0" style="stop-color:#7F00FF"/>
			<stop  offset="1" style="stop-color:#3F00FC"/>
		</linearGradient>
		<polyline style="fill:url(#SVGID_00000163036659340692226900000000037644983988773055_);" points="169.5,168.6 165.9,166.6 
			158.2,171 149.6,166 157.3,161.6 153.6,159.5 134.3,170.7 137.9,172.8 146.6,167.8 155.2,172.7 146.5,177.8 150.1,179.9 
			169.5,168.6 		"/>
		
			<linearGradient id="SVGID_00000131331581598521928060000012693801227123834246_" gradientUnits="userSpaceOnUse" x1="155.9118" y1="178.9184" x2="187.4743" y2="178.9184">
			<stop  offset="0" style="stop-color:#7F00FF"/>
			<stop  offset="1" style="stop-color:#3F00FC"/>
		</linearGradient>
		<path style="fill:url(#SVGID_00000131331581598521928060000012693801227123834246_);" d="M187.5,179l-3.6-2.1l-11.3,6.6
			c-3.9,2.3-7,2.2-9.8,0.6c-2.9-1.7-2.9-3.4,1-5.7l11.3-6.6l-3.6-2.1l-11.3,6.6c-6,3.5-5.2,6.8-0.5,9.5c4.7,2.7,10.5,3.2,16.5-0.3
			L187.5,179"/>
		
			<linearGradient id="SVGID_00000085220645342219414820000012268356353442054785_" gradientUnits="userSpaceOnUse" x1="170.114" y1="190.456" x2="205.6083" y2="190.456">
			<stop  offset="0" style="stop-color:#7F00FF"/>
			<stop  offset="1" style="stop-color:#3F00FC"/>
		</linearGradient>
		<path style="fill:url(#SVGID_00000085220645342219414820000012268356353442054785_);" d="M205.6,189.5l-3.6-2.1l-11.8,6.9
			c-0.4,0.2-0.8,0.5-1,0.8l3.4-13.1l-3.1-1.8l-19.3,11.2l3.6,2.1l12.1-7.1c0.2-0.1,0.5-0.3,0.7-0.5l-3.4,13l3.1,1.8L205.6,189.5"/>
		
			<linearGradient id="SVGID_00000158016660459993530640000003489970123486166425_" gradientUnits="userSpaceOnUse" x1="188.3828" y1="197.3812" x2="218.0285" y2="197.3812">
			<stop  offset="0" style="stop-color:#7F00FF"/>
			<stop  offset="1" style="stop-color:#3F00FC"/>
		</linearGradient>
		<path style="fill:url(#SVGID_00000158016660459993530640000003489970123486166425_);" d="M201.8,198.4l6.5-3.8l3,1.7
			c2.4,1.4,2.5,2.6,0.5,3.8c-2.2,1.3-4.5,1.3-7-0.1L201.8,198.4 M214.3,194.5l-6.6-3.8L188.4,202l3.6,2.1l6-3.5
			c0.2-0.1,0.4-0.4,0.5-0.5l3.2,1.8c5,2.9,10.2,2.4,13.7,0.4C218.9,200.2,219.3,197.4,214.3,194.5"/>
		
			<linearGradient id="SVGID_00000078042646291961810400000011325414835772822158_" gradientUnits="userSpaceOnUse" x1="199.7977" y1="210.0867" x2="229.8674" y2="210.0867">
			<stop  offset="0" style="stop-color:#7F00FF"/>
			<stop  offset="1" style="stop-color:#3F00FC"/>
		</linearGradient>
		<path style="fill:url(#SVGID_00000078042646291961810400000011325414835772822158_);" d="M214.2,207.7l7.8-2.2
			c0.6-0.2,1.5-0.5,1.9-0.7c-0.3,0.2-0.8,0.7-1.1,1.1l-3.8,4.5L214.2,207.7 M229.9,203.5l-3.7-2.1l-26.4,7.2l3.8,2.2l6.6-1.9
			l6.8,3.9l-3.2,3.8l3.8,2.2L229.9,203.5"/>
		
			<linearGradient id="SVGID_00000049195643231488380840000009670289992729949855_" gradientUnits="userSpaceOnUse" x1="219.7666" y1="217.4709" x2="249.6951" y2="217.4709">
			<stop  offset="0" style="stop-color:#7F00FF"/>
			<stop  offset="1" style="stop-color:#3F00FC"/>
		</linearGradient>
		<path style="fill:url(#SVGID_00000049195643231488380840000009670289992729949855_);" d="M226.4,220.4l13.2-7.7l2.3,1.3
			c4.1,2.4,3.9,4.7-0.4,7.2c-4.5,2.6-8.8,2.9-12.8,0.5L226.4,220.4 M245,212.3l-5.9-3.4l-19.3,11.2l5.9,3.4c7,4.1,14.2,2.9,19.5-0.2
			C250.6,220.2,251.9,216.2,245,212.3"/>
	</g>
</g>
</svg>
