<?xml version="1.0" encoding="utf-8"?>
<!-- Generator: Adobe Illustrator 26.0.0, SVG Export Plug-In . SVG Version: 6.00 Build 0)  -->
<svg version="1.1" id="Capa_1" xmlns="http://www.w3.org/2000/svg" xmlns:xlink="http://www.w3.org/1999/xlink" x="0px" y="0px"
	 viewBox="0 0 512 512" style="enable-background:new 0 0 512 512;" xml:space="preserve">
<style type="text/css">
	.st0{opacity:0.2;fill:#1E1A21;enable-background:new    ;}
	.st1{fill:none;stroke:url(#SVGID_1_);stroke-width:3;stroke-linecap:round;stroke-linejoin:round;stroke-miterlimit:10;}
	.st2{fill:url(#XMLID_00000025428189146293530360000005167251344865704368_);}
	.st3{fill:url(#XMLID_00000023981068714595565810000009813467020107948728_);}
	.st4{fill:url(#XMLID_00000100348173034113197990000006566969807242094988_);}
	.st5{fill:url(#XMLID_00000113335576789860570130000016445709768578972801_);}
	
		.st6{clip-path:url(#SVGID_00000085238015709618806440000000065052987725384351_);fill:url(#XMLID_00000001653735554795256090000018276253081065487014_);}
	
		.st7{clip-path:url(#SVGID_00000038388802800735626050000004846199477298344608_);fill:url(#XMLID_00000092444303287497421780000014289088439122578111_);}
	
		.st8{clip-path:url(#SVGID_00000102519073131700521810000001807446744030031498_);fill:url(#XMLID_00000052783827035716182980000009489589635155773839_);}
	
		.st9{clip-path:url(#SVGID_00000132089117896779196680000009246887064778059652_);fill:url(#XMLID_00000175305061389347345310000015908568793448470664_);}
	
		.st10{clip-path:url(#SVGID_00000104708011436133598140000010244716372599362738_);fill:url(#XMLID_00000062173590086540858180000008566508222086837412_);}
	
		.st11{clip-path:url(#SVGID_00000031891084358255847830000007350384603296922783_);fill:url(#XMLID_00000031914515101722507350000017978426093521291412_);}
	
		.st12{clip-path:url(#SVGID_00000143598292219915956840000000554360794746833066_);fill:url(#XMLID_00000133528473305621775850000018213800875621242788_);}
	
		.st13{clip-path:url(#SVGID_00000021093438842118459080000008163960604063185538_);fill:url(#XMLID_00000098931085903925792260000002240604324665641608_);}
	.st14{opacity:0.5;fill:none;stroke:#0053FB;stroke-width:2;stroke-miterlimit:10;enable-background:new    ;}
	.st15{fill:url(#XMLID_00000101812412225153912150000010120198386967647122_);}
	.st16{fill:url(#XMLID_00000132787235121484244250000000880467469909939626_);}
	.st17{fill:url(#XMLID_00000181076346641359301290000016784194823757716875_);}
	.st18{fill:url(#XMLID_00000074399658075220593540000001851201747322764459_);}
	.st19{fill:url(#XMLID_00000057869926536539970240000013519459661701133466_);}
	.st20{fill:url(#XMLID_00000055703365604492577990000000717455256609191612_);}
	.st21{fill:url(#XMLID_00000005259806231588047580000017850257355719098755_);}
	.st22{fill:url(#XMLID_00000173839627271438612740000016868716003546031037_);}
	.st23{fill:url(#XMLID_00000088818365671534850820000007284025944165640356_);}
	.st24{fill:url(#XMLID_00000148619195905796947240000003918793320451263155_);}
	.st25{fill:url(#XMLID_00000031209007771273057990000008973693920677814428_);}
	.st26{fill:url(#XMLID_00000118389912540960210170000005548468693026581124_);}
	.st27{fill:url(#XMLID_00000095338971561422716120000015800326775497226881_);}
	.st28{fill:url(#XMLID_00000101796257143184531400000000617123678200957117_);}
	.st29{fill:url(#SVGID_00000026863728448237148530000011633246969958586039_);}
	.st30{fill:url(#SVGID_00000093875559867528193430000013757427569200543378_);}
	.st31{fill:url(#SVGID_00000164492365343533123960000006949794541362723490_);}
	.st32{fill:url(#SVGID_00000045585880148229916380000009554014270482408350_);}
	.st33{fill:url(#SVGID_00000158742824577726972880000008321761025005869709_);}
	.st34{fill:url(#SVGID_00000043439443598968916500000009765293972723051699_);}
	.st35{fill:url(#SVGID_00000129164251179178629390000004813168390627026362_);}
	.st36{fill:url(#SVGID_00000011022226383553207470000015045653923297045933_);}
	.st37{fill:url(#SVGID_00000170976113725346897060000002682216458729970863_);}
	.st38{fill:url(#SVGID_00000044167871716523284530000002937438928558361263_);}
	.st39{fill:url(#SVGID_00000049903447980232402150000011488892959107463102_);}
	.st40{fill:url(#SVGID_00000141435013053713955120000014071107967901667466_);}
	.st41{fill:url(#SVGID_00000164507570130031946770000015574769563678146491_);}
	.st42{fill:url(#SVGID_00000004509214517939189840000006518734894980018077_);}
	.st43{opacity:0.5;}
	.st44{fill:none;stroke:#0053FB;stroke-miterlimit:10;}
</style>
<path class="st0" d="M118.6,424.5c0,0-5,2.4,0.8,8.8c5.7,6.3,126.7,72.9,126.7,72.9s10,5.2,17.4,0l110.2-64.6c0,0,2.8-4.2-3.1-7.1
	l-126.5-73.3c0,0-6.4-5-14.9,0S118.6,424.5,118.6,424.5z"/>
<linearGradient id="XMLID_00000013886269084211389080000006962893047726213306_" gradientUnits="userSpaceOnUse" x1="222.4643" y1="17412.1074" x2="289.5607" y2="17161.6992" gradientTransform="matrix(1 0 0 1 0 -16934)">
	<stop  offset="0" style="stop-color:#4F3E90"/>
	<stop  offset="1" style="stop-color:#171A31"/>
</linearGradient>
<polygon id="XMLID_20_" style="fill:url(#XMLID_00000013886269084211389080000006962893047726213306_);" points="140,420.1 
	140,285.8 255.6,218.6 372,285.7 372,420.1 256.4,487.2 "/>
<linearGradient id="XMLID_00000172399850209003945300000002755344783337107135_" gradientUnits="userSpaceOnUse" x1="239.2393" y1="17282.3027" x2="272.7607" y2="17157.1973" gradientTransform="matrix(1 0 0 1 0 -16934)">
	<stop  offset="0" style="stop-color:#4F3E90"/>
	<stop  offset="1" style="stop-color:#171A31"/>
</linearGradient>
<polygon id="XMLID_49_" style="fill:url(#XMLID_00000172399850209003945300000002755344783337107135_);" points="255.6,218.6 
	372,285.7 256.4,352.9 140,285.8 "/>
<linearGradient id="XMLID_00000040552218695534539570000001805996732771698592_" gradientUnits="userSpaceOnUse" x1="292.8843" y1="17240.8984" x2="335.5157" y2="17400" gradientTransform="matrix(1 0 0 1 0 -16934)">
	<stop  offset="0" style="stop-color:#4F3E90"/>
	<stop  offset="1" style="stop-color:#171A31"/>
</linearGradient>
<polygon id="XMLID_50_" style="fill:url(#XMLID_00000040552218695534539570000001805996732771698592_);" points="256.4,487.2 
	256.4,352.9 372,285.7 372,420.1 "/>
<g id="XMLID_97_">
	<g>
		
			<linearGradient id="XMLID_00000031189730359479621470000015072163486254150819_" gradientUnits="userSpaceOnUse" x1="186.2" y1="233.75" x2="322.9" y2="233.75" gradientTransform="matrix(1 0 0 -1 0 514)">
			<stop  offset="1.916698e-07" style="stop-color:#7F00FF;stop-opacity:0.4"/>
			<stop  offset="1" style="stop-color:#3D00FF;stop-opacity:0.6"/>
		</linearGradient>
		<polygon id="XMLID_98_" style="fill:url(#XMLID_00000031189730359479621470000015072163486254150819_);" points="254.4,240.7 
			322.9,280.3 254.8,319.8 186.2,280.3 		"/>
	</g>
	<g>
		<defs>
			<polygon id="SVGID_00000133519913376470133670000011698300690405703101_" points="254.4,240.7 322.9,280.3 254.8,319.8 
				186.2,280.3 			"/>
		</defs>
		<clipPath id="SVGID_00000063614950542203743670000002192699243323323567_">
			<use xlink:href="#SVGID_00000133519913376470133670000011698300690405703101_"  style="overflow:visible;"/>
		</clipPath>
		
			<linearGradient id="XMLID_00000129887991934607337350000001695423909701439370_" gradientUnits="userSpaceOnUse" x1="244.6399" y1="17189.7148" x2="264.4668" y2="17263.709" gradientTransform="matrix(1 0 0 1 0 -16934)">
			<stop  offset="1.916698e-07" style="stop-color:#7F00FF;stop-opacity:0.4"/>
			<stop  offset="1" style="stop-color:#3D00FF;stop-opacity:0.6"/>
		</linearGradient>
		
			<polygon id="XMLID_109_" style="clip-path:url(#SVGID_00000063614950542203743670000002192699243323323567_);fill:url(#XMLID_00000129887991934607337350000001695423909701439370_);" points="
			254.4,253.1 322.9,292.7 254.8,332.3 186.2,292.7 		"/>
	</g>
	<g>
		<defs>
			<polygon id="SVGID_00000072987052304045610740000002772429765805654442_" points="254.4,240.7 322.9,280.3 254.8,319.8 
				186.2,280.3 			"/>
		</defs>
		<clipPath id="SVGID_00000178893262399064185630000007038854226768949166_">
			<use xlink:href="#SVGID_00000072987052304045610740000002772429765805654442_"  style="overflow:visible;"/>
		</clipPath>
		
			<linearGradient id="XMLID_00000028284808939840471690000016793742812040551102_" gradientUnits="userSpaceOnUse" x1="244.6399" y1="17201.916" x2="264.4668" y2="17275.9102" gradientTransform="matrix(1 0 0 1 0 -16934)">
			<stop  offset="1.916698e-07" style="stop-color:#7F00FF;stop-opacity:0.4"/>
			<stop  offset="1" style="stop-color:#3D00FF;stop-opacity:0.6"/>
		</linearGradient>
		
			<polygon id="XMLID_108_" style="clip-path:url(#SVGID_00000178893262399064185630000007038854226768949166_);fill:url(#XMLID_00000028284808939840471690000016793742812040551102_);" points="
			254.4,265.3 322.9,304.9 254.8,344.5 186.2,304.9 		"/>
	</g>
	<g>
		<defs>
			<polygon id="SVGID_00000121273406953617204000000007868377540791488914_" points="254.4,240.7 322.9,280.3 254.8,319.8 
				186.2,280.3 			"/>
		</defs>
		<clipPath id="SVGID_00000039113456228733540570000017779802741581328805_">
			<use xlink:href="#SVGID_00000121273406953617204000000007868377540791488914_"  style="overflow:visible;"/>
		</clipPath>
		
			<linearGradient id="XMLID_00000054956220077520198830000012279455547765668797_" gradientUnits="userSpaceOnUse" x1="244.6399" y1="17214.1152" x2="264.4668" y2="17288.1094" gradientTransform="matrix(1 0 0 1 0 -16934)">
			<stop  offset="1.916698e-07" style="stop-color:#7F00FF;stop-opacity:0.4"/>
			<stop  offset="1" style="stop-color:#3D00FF;stop-opacity:0.6"/>
		</linearGradient>
		
			<polygon id="XMLID_107_" style="clip-path:url(#SVGID_00000039113456228733540570000017779802741581328805_);fill:url(#XMLID_00000054956220077520198830000012279455547765668797_);" points="
			254.4,277.5 322.9,317.1 254.8,356.7 186.2,317.1 		"/>
	</g>
	<g>
		<defs>
			<polygon id="SVGID_00000182500651075535509860000002364401020980771467_" points="254.4,240.7 322.9,280.3 254.8,319.8 
				186.2,280.3 			"/>
		</defs>
		<clipPath id="SVGID_00000154426166501659942490000016653534406524722844_">
			<use xlink:href="#SVGID_00000182500651075535509860000002364401020980771467_"  style="overflow:visible;"/>
		</clipPath>
		
			<linearGradient id="XMLID_00000157276462312316441010000006411057062412371602_" gradientUnits="userSpaceOnUse" x1="244.6399" y1="17226.3145" x2="264.4668" y2="17300.3105" gradientTransform="matrix(1 0 0 1 0 -16934)">
			<stop  offset="1.916698e-07" style="stop-color:#7F00FF;stop-opacity:0.4"/>
			<stop  offset="1" style="stop-color:#3D00FF;stop-opacity:0.6"/>
		</linearGradient>
		
			<polygon id="XMLID_105_" style="clip-path:url(#SVGID_00000154426166501659942490000016653534406524722844_);fill:url(#XMLID_00000157276462312316441010000006411057062412371602_);" points="
			254.4,289.7 322.9,329.3 254.8,368.9 186.2,329.3 		"/>
	</g>
	<g>
		<defs>
			<polygon id="SVGID_00000065074808603195702930000001615155385824622741_" points="254.4,240.7 322.9,280.3 254.8,319.8 
				186.2,280.3 			"/>
		</defs>
		<clipPath id="SVGID_00000035521992405109785710000001838643426505336192_">
			<use xlink:href="#SVGID_00000065074808603195702930000001615155385824622741_"  style="overflow:visible;"/>
		</clipPath>
		
			<linearGradient id="XMLID_00000038401862471447429100000009671269536260111753_" gradientUnits="userSpaceOnUse" x1="244.6649" y1="17238.6094" x2="264.4668" y2="17312.5098" gradientTransform="matrix(1 0 0 1 0 -16934)">
			<stop  offset="1.916698e-07" style="stop-color:#7F00FF;stop-opacity:0.4"/>
			<stop  offset="1" style="stop-color:#3D00FF;stop-opacity:0.6"/>
		</linearGradient>
		
			<polygon id="XMLID_104_" style="clip-path:url(#SVGID_00000035521992405109785710000001838643426505336192_);fill:url(#XMLID_00000038401862471447429100000009671269536260111753_);" points="
			254.4,302 322.9,341.5 254.8,381.1 186.2,341.5 		"/>
	</g>
	<g>
		<defs>
			<polygon id="SVGID_00000127034317519168598560000003785677272547456177_" points="254.4,240.7 322.9,280.3 254.8,319.8 
				186.2,280.3 			"/>
		</defs>
		<clipPath id="SVGID_00000127759109452353464130000010962700867758148518_">
			<use xlink:href="#SVGID_00000127034317519168598560000003785677272547456177_"  style="overflow:visible;"/>
		</clipPath>
		
			<linearGradient id="XMLID_00000176006310222739395100000012518442048654386580_" gradientUnits="userSpaceOnUse" x1="244.6649" y1="17250.8086" x2="264.4668" y2="17324.709" gradientTransform="matrix(1 0 0 1 0 -16934)">
			<stop  offset="1.916698e-07" style="stop-color:#7F00FF;stop-opacity:0.4"/>
			<stop  offset="1" style="stop-color:#3D00FF;stop-opacity:0.6"/>
		</linearGradient>
		
			<polygon id="XMLID_103_" style="clip-path:url(#SVGID_00000127759109452353464130000010962700867758148518_);fill:url(#XMLID_00000176006310222739395100000012518442048654386580_);" points="
			254.4,314.2 322.9,353.7 254.8,393.3 186.2,353.7 		"/>
	</g>
	<g>
		<defs>
			<polygon id="SVGID_00000151507989350981877530000012132516323425085359_" points="254.4,240.7 322.9,280.3 254.8,319.8 
				186.2,280.3 			"/>
		</defs>
		<clipPath id="SVGID_00000146466722305527621070000008883709836407123368_">
			<use xlink:href="#SVGID_00000151507989350981877530000012132516323425085359_"  style="overflow:visible;"/>
		</clipPath>
		
			<linearGradient id="XMLID_00000095306586632742414570000010824334027801790598_" gradientUnits="userSpaceOnUse" x1="244.6649" y1="17263.0078" x2="264.4668" y2="17336.9102" gradientTransform="matrix(1 0 0 1 0 -16934)">
			<stop  offset="1.916698e-07" style="stop-color:#7F00FF;stop-opacity:0.4"/>
			<stop  offset="1" style="stop-color:#3D00FF;stop-opacity:0.6"/>
		</linearGradient>
		
			<polygon id="XMLID_101_" style="clip-path:url(#SVGID_00000146466722305527621070000008883709836407123368_);fill:url(#XMLID_00000095306586632742414570000010824334027801790598_);" points="
			254.4,326.4 322.9,365.9 254.8,405.5 186.2,365.9 		"/>
	</g>
	<g>
		<defs>
			<polygon id="SVGID_00000087411943871577036530000001365043167890547109_" points="254.4,240.7 322.9,280.3 254.8,319.8 
				186.2,280.3 			"/>
		</defs>
		<clipPath id="SVGID_00000088127819226227338510000008868953621642399392_">
			<use xlink:href="#SVGID_00000087411943871577036530000001365043167890547109_"  style="overflow:visible;"/>
		</clipPath>
		
			<linearGradient id="XMLID_00000147917726872165088640000014629860576867470238_" gradientUnits="userSpaceOnUse" x1="244.6524" y1="17275.2109" x2="264.4543" y2="17349.1133" gradientTransform="matrix(1 0 0 1 0 -16934)">
			<stop  offset="1.916698e-07" style="stop-color:#7F00FF;stop-opacity:0.4"/>
			<stop  offset="1" style="stop-color:#3D00FF;stop-opacity:0.6"/>
		</linearGradient>
		
			<polygon id="XMLID_100_" style="clip-path:url(#SVGID_00000088127819226227338510000008868953621642399392_);fill:url(#XMLID_00000147917726872165088640000014629860576867470238_);" points="
			254.4,338.6 322.9,378.1 254.8,417.7 186.2,378.2 		"/>
	</g>
</g>
<polyline id="XMLID_56_" class="st14" points="331.1,309.5 331.1,392 307.1,407.9 307.1,457.8 "/>
<linearGradient id="XMLID_00000025420784013741093170000007919242074737469333_" gradientUnits="userSpaceOnUse" x1="266.037" y1="17231.8008" x2="267.5721" y2="17231.8008" gradientTransform="matrix(1 0 0 1 0 -16934)">
	<stop  offset="2.945171e-07" style="stop-color:#3F00FC"/>
	<stop  offset="0.2077" style="stop-color:#3F02F7"/>
	<stop  offset="0.4672" style="stop-color:#3E09E7"/>
	<stop  offset="0.7531" style="stop-color:#3E14CE"/>
	<stop  offset="1" style="stop-color:#3D20B2"/>
</linearGradient>
<circle id="XMLID_304_" style="fill:url(#XMLID_00000025420784013741093170000007919242074737469333_);" cx="266.8" cy="297.8" r="0.8"/>
<linearGradient id="XMLID_00000018206878537757927890000016914824085830643863_" gradientUnits="userSpaceOnUse" x1="220.4831" y1="17128" x2="222.0182" y2="17128" gradientTransform="matrix(1 0 0 1 0 -16934)">
	<stop  offset="2.945171e-07" style="stop-color:#3F00FC"/>
	<stop  offset="0.2077" style="stop-color:#3F02F7"/>
	<stop  offset="0.4672" style="stop-color:#3E09E7"/>
	<stop  offset="0.7531" style="stop-color:#3E14CE"/>
	<stop  offset="1" style="stop-color:#3D20B2"/>
</linearGradient>
<circle id="XMLID_302_" style="fill:url(#XMLID_00000018206878537757927890000016914824085830643863_);" cx="221.3" cy="194" r="0.8"/>
<linearGradient id="XMLID_00000052799592942961514910000013497198563506150335_" gradientUnits="userSpaceOnUse" x1="314.3911" y1="17057.5" x2="317.9645" y2="17057.5" gradientTransform="matrix(1 0 0 1 0 -16934)">
	<stop  offset="2.945171e-07" style="stop-color:#3F00FC"/>
	<stop  offset="0.2077" style="stop-color:#3F02F7"/>
	<stop  offset="0.4672" style="stop-color:#3E09E7"/>
	<stop  offset="0.7531" style="stop-color:#3E14CE"/>
	<stop  offset="1" style="stop-color:#3D20B2"/>
</linearGradient>
<circle id="XMLID_37_" style="fill:url(#XMLID_00000052799592942961514910000013497198563506150335_);" cx="316.2" cy="123.5" r="1.8"/>
<linearGradient id="XMLID_00000173160100757269110170000012018659757158385050_" gradientUnits="userSpaceOnUse" x1="334.2146" y1="16977.5" x2="335.6652" y2="16977.5" gradientTransform="matrix(1 0 0 1 0 -16934)">
	<stop  offset="2.945171e-07" style="stop-color:#3F00FC"/>
	<stop  offset="0.2077" style="stop-color:#3F02F7"/>
	<stop  offset="0.4672" style="stop-color:#3E09E7"/>
	<stop  offset="0.7531" style="stop-color:#3E14CE"/>
	<stop  offset="1" style="stop-color:#3D20B2"/>
</linearGradient>
<circle id="XMLID_43_" style="fill:url(#XMLID_00000173160100757269110170000012018659757158385050_);" cx="334.9" cy="43.5" r="0.7"/>
<linearGradient id="XMLID_00000162341769906136868640000018111670378935680150_" gradientUnits="userSpaceOnUse" x1="205.4942" y1="17053" x2="209.0676" y2="17053" gradientTransform="matrix(1 0 0 1 0 -16934)">
	<stop  offset="2.945171e-07" style="stop-color:#3F00FC"/>
	<stop  offset="0.2077" style="stop-color:#3F02F7"/>
	<stop  offset="0.4672" style="stop-color:#3E09E7"/>
	<stop  offset="0.7531" style="stop-color:#3E14CE"/>
	<stop  offset="1" style="stop-color:#3D20B2"/>
</linearGradient>
<circle id="XMLID_143_" style="fill:url(#XMLID_00000162341769906136868640000018111670378935680150_);" cx="207.3" cy="119" r="1.8"/>
<linearGradient id="XMLID_00000046334481443792892820000016947419847629070994_" gradientUnits="userSpaceOnUse" x1="327.3285" y1="17136.9004" x2="328.7791" y2="17136.9004" gradientTransform="matrix(1 0 0 1 0 -16934)">
	<stop  offset="2.945171e-07" style="stop-color:#3F00FC"/>
	<stop  offset="0.2077" style="stop-color:#3F02F7"/>
	<stop  offset="0.4672" style="stop-color:#3E09E7"/>
	<stop  offset="0.7531" style="stop-color:#3E14CE"/>
	<stop  offset="1" style="stop-color:#3D20B2"/>
</linearGradient>
<circle id="XMLID_142_" style="fill:url(#XMLID_00000046334481443792892820000016947419847629070994_);" cx="328.1" cy="202.9" r="0.7"/>
<linearGradient id="XMLID_00000160903516139197279710000015546038099914086300_" gradientUnits="userSpaceOnUse" x1="253.6091" y1="17070.5996" x2="255.5427" y2="17070.5996" gradientTransform="matrix(1 0 0 1 0 -16934)">
	<stop  offset="2.945171e-07" style="stop-color:#3F00FC"/>
	<stop  offset="0.2077" style="stop-color:#3F02F7"/>
	<stop  offset="0.4672" style="stop-color:#3E09E7"/>
	<stop  offset="0.7531" style="stop-color:#3E14CE"/>
	<stop  offset="1" style="stop-color:#3D20B2"/>
</linearGradient>
<circle id="XMLID_140_" style="fill:url(#XMLID_00000160903516139197279710000015546038099914086300_);" cx="254.6" cy="136.6" r="1"/>
<linearGradient id="XMLID_00000010989522022744367640000007872529505816097942_" gradientUnits="userSpaceOnUse" x1="259.151" y1="17191.1992" x2="262.7244" y2="17191.1992" gradientTransform="matrix(1 0 0 1 0 -16934)">
	<stop  offset="2.945171e-07" style="stop-color:#3F00FC"/>
	<stop  offset="0.2077" style="stop-color:#3F02F7"/>
	<stop  offset="0.4672" style="stop-color:#3E09E7"/>
	<stop  offset="0.7531" style="stop-color:#3E14CE"/>
	<stop  offset="1" style="stop-color:#3D20B2"/>
</linearGradient>
<circle id="XMLID_73_" style="fill:url(#XMLID_00000010989522022744367640000007872529505816097942_);" cx="260.9" cy="257.2" r="1.8"/>
<linearGradient id="XMLID_00000176026935925755368820000013439348694085788075_" gradientUnits="userSpaceOnUse" x1="244.2558" y1="17111.8008" x2="245.7064" y2="17111.8008" gradientTransform="matrix(1 0 0 1 0 -16934)">
	<stop  offset="2.945171e-07" style="stop-color:#3F00FC"/>
	<stop  offset="0.2077" style="stop-color:#3F02F7"/>
	<stop  offset="0.4672" style="stop-color:#3E09E7"/>
	<stop  offset="0.7531" style="stop-color:#3E14CE"/>
	<stop  offset="1" style="stop-color:#3D20B2"/>
</linearGradient>
<circle id="XMLID_72_" style="fill:url(#XMLID_00000176026935925755368820000013439348694085788075_);" cx="245" cy="177.8" r="0.7"/>
<linearGradient id="XMLID_00000142877818352178999980000014812305486059584162_" gradientUnits="userSpaceOnUse" x1="236.2674" y1="17220.4004" x2="238.201" y2="17220.4004" gradientTransform="matrix(1 0 0 1 0 -16934)">
	<stop  offset="2.945171e-07" style="stop-color:#3F00FC"/>
	<stop  offset="0.2077" style="stop-color:#3F02F7"/>
	<stop  offset="0.4672" style="stop-color:#3E09E7"/>
	<stop  offset="0.7531" style="stop-color:#3E14CE"/>
	<stop  offset="1" style="stop-color:#3D20B2"/>
</linearGradient>
<circle id="XMLID_71_" style="fill:url(#XMLID_00000142877818352178999980000014812305486059584162_);" cx="237.2" cy="286.4" r="1"/>
<linearGradient id="XMLID_00000182496500342641551900000013159674945867507624_" gradientUnits="userSpaceOnUse" x1="284.8" y1="17168.9004" x2="286.7336" y2="17168.9004" gradientTransform="matrix(1 0 0 1 0 -16934)">
	<stop  offset="2.945171e-07" style="stop-color:#3F00FC"/>
	<stop  offset="0.2077" style="stop-color:#3F02F7"/>
	<stop  offset="0.4672" style="stop-color:#3E09E7"/>
	<stop  offset="0.7531" style="stop-color:#3E14CE"/>
	<stop  offset="1" style="stop-color:#3D20B2"/>
</linearGradient>
<circle id="XMLID_70_" style="fill:url(#XMLID_00000182496500342641551900000013159674945867507624_);" cx="285.8" cy="234.9" r="1"/>
<linearGradient id="XMLID_00000061441124301995220180000013597732052335295676_" gradientUnits="userSpaceOnUse" x1="219.464" y1="16959.9004" x2="223.0374" y2="16959.9004" gradientTransform="matrix(1 0 0 1 0 -16934)">
	<stop  offset="2.945171e-07" style="stop-color:#3F00FC"/>
	<stop  offset="0.2077" style="stop-color:#3F02F7"/>
	<stop  offset="0.4672" style="stop-color:#3E09E7"/>
	<stop  offset="0.7531" style="stop-color:#3E14CE"/>
	<stop  offset="1" style="stop-color:#3D20B2"/>
</linearGradient>
<circle id="XMLID_369_" style="fill:url(#XMLID_00000061441124301995220180000013597732052335295676_);" cx="221.3" cy="25.9" r="1.8"/>
<linearGradient id="XMLID_00000089546528335024119030000017336649379661424016_" gradientUnits="userSpaceOnUse" x1="257.3643" y1="17018.5" x2="260.9377" y2="17018.5" gradientTransform="matrix(1 0 0 1 0 -16934)">
	<stop  offset="2.945171e-07" style="stop-color:#3F00FC"/>
	<stop  offset="0.2077" style="stop-color:#3F02F7"/>
	<stop  offset="0.4672" style="stop-color:#3E09E7"/>
	<stop  offset="0.7531" style="stop-color:#3E14CE"/>
	<stop  offset="1" style="stop-color:#3D20B2"/>
</linearGradient>
<circle id="XMLID_359_" style="fill:url(#XMLID_00000089546528335024119030000017336649379661424016_);" cx="259.2" cy="84.5" r="1.8"/>
<linearGradient id="XMLID_00000013906408260171929670000012932048023650331811_" gradientUnits="userSpaceOnUse" x1="271.8279" y1="16999.0996" x2="273.7615" y2="16999.0996" gradientTransform="matrix(1 0 0 1 0 -16934)">
	<stop  offset="2.945171e-07" style="stop-color:#3F00FC"/>
	<stop  offset="0.2077" style="stop-color:#3F02F7"/>
	<stop  offset="0.4672" style="stop-color:#3E09E7"/>
	<stop  offset="0.7531" style="stop-color:#3E14CE"/>
	<stop  offset="1" style="stop-color:#3D20B2"/>
</linearGradient>
<circle id="XMLID_358_" style="fill:url(#XMLID_00000013906408260171929670000012932048023650331811_);" cx="272.8" cy="65.1" r="1"/>
<g>
	<path class="st0" d="M117.5,461.1c0,0-2.1,1,0.3,3.7c2.4,2.6,52.9,30.4,52.9,30.4s4.2,2.2,7.2,0l46-27c0,0,1.2-1.8-1.3-3
		l-52.8-30.6c0,0-2.7-2.1-6.2,0C160,436.7,117.5,461.1,117.5,461.1z"/>
	
		<linearGradient id="SVGID_1_" gradientUnits="userSpaceOnUse" x1="116.6496" y1="1001.2222" x2="224.1879" y2="1001.2222" gradientTransform="matrix(1 0 0 1 0 -550)">
		<stop  offset="0" style="stop-color:#4F3E90"/>
		<stop  offset="1" style="stop-color:#171A31"/>
	</linearGradient>
	<path style="fill:url(#SVGID_1_);" d="M117.5,447.4c0,0-2.1,1,0.3,3.7c2.4,2.6,52.9,30.4,52.9,30.4s4.2,2.2,7.2,0l46-27
		c0,0,1.2-1.8-1.3-3l-52.8-30.6c0,0-2.7-2.1-6.2,0C160,423,117.5,447.4,117.5,447.4z"/>
	
		<linearGradient id="SVGID_00000181789752830764959200000000187716675440758676_" gradientUnits="userSpaceOnUse" x1="116.6992" y1="1018.6496" x2="224.416" y2="1018.6496" gradientTransform="matrix(1 0 0 1 0 -550)">
		<stop  offset="0" style="stop-color:#463780"/>
		<stop  offset="0.1433" style="stop-color:#382E68"/>
		<stop  offset="0.3308" style="stop-color:#292550"/>
		<stop  offset="0.5289" style="stop-color:#1F1F3F"/>
		<stop  offset="0.7426" style="stop-color:#191B34"/>
		<stop  offset="1" style="stop-color:#171A31"/>
	</linearGradient>
	<path style="fill:url(#SVGID_00000181789752830764959200000000187716675440758676_);" d="M116.7,454.9v-6.3c0,0-0.1,1.7,1.9,2.9
		c1.9,1.3,14.7,8.8,14.7,8.8l19.1,10.8l18.2,10.1c0,0,4,2.2,7.3,0.3c3.2-1.9,46.2-27.1,46.2-27.1s0.4-0.5,0.3-1.5v6.8
		c0,0.6-0.3,1.1-0.8,1.4l-45.1,26.3c0,0-4.6,3.4-9.1-0.8l-51.8-30.3C117,456.2,116.7,455.6,116.7,454.9L116.7,454.9z"/>
	
		<linearGradient id="SVGID_00000143611386953940695030000007363432046720828050_" gradientUnits="userSpaceOnUse" x1="116.6496" y1="986.3222" x2="224.1879" y2="986.3222" gradientTransform="matrix(1 0 0 1 0 -550)">
		<stop  offset="0" style="stop-color:#4F3E90"/>
		<stop  offset="1" style="stop-color:#171A31"/>
	</linearGradient>
	<path style="fill:url(#SVGID_00000143611386953940695030000007363432046720828050_);" d="M117.5,432.5c0,0-2.1,1,0.3,3.7
		c2.4,2.6,52.9,30.4,52.9,30.4s4.2,2.2,7.2,0l46-27c0,0,1.2-1.8-1.3-3L169.8,406c0,0-2.7-2.1-6.2,0
		C160,408.1,117.5,432.5,117.5,432.5z"/>
	
		<linearGradient id="SVGID_00000181796970090462328720000005814568297088327091_" gradientUnits="userSpaceOnUse" x1="116.6992" y1="1003.7496" x2="224.416" y2="1003.7496" gradientTransform="matrix(1 0 0 1 0 -550)">
		<stop  offset="0" style="stop-color:#463780"/>
		<stop  offset="0.1433" style="stop-color:#382E68"/>
		<stop  offset="0.3308" style="stop-color:#292550"/>
		<stop  offset="0.5289" style="stop-color:#1F1F3F"/>
		<stop  offset="0.7426" style="stop-color:#191B34"/>
		<stop  offset="1" style="stop-color:#171A31"/>
	</linearGradient>
	<path style="fill:url(#SVGID_00000181796970090462328720000005814568297088327091_);" d="M116.7,440v-6.3c0,0-0.1,1.7,1.9,2.9
		c1.9,1.3,14.7,8.8,14.7,8.8l19.1,10.8l18.2,10.1c0,0,4,2.2,7.3,0.3c3.2-1.9,46.2-27.1,46.2-27.1s0.4-0.5,0.3-1.5v6.8
		c0,0.6-0.3,1.1-0.8,1.4l-45.1,26.3c0,0-4.6,3.4-9.1-0.8l-51.8-30.3C117,441.2,116.7,440.7,116.7,440L116.7,440z"/>
	
		<linearGradient id="SVGID_00000182509171800802465260000007639087476088402341_" gradientUnits="userSpaceOnUse" x1="116.6496" y1="971.3222" x2="224.1879" y2="971.3222" gradientTransform="matrix(1 0 0 1 0 -550)">
		<stop  offset="0" style="stop-color:#4F3E90"/>
		<stop  offset="1" style="stop-color:#171A31"/>
	</linearGradient>
	<path style="fill:url(#SVGID_00000182509171800802465260000007639087476088402341_);" d="M117.5,417.5c0,0-2.1,1,0.3,3.7
		c2.4,2.6,52.9,30.4,52.9,30.4s4.2,2.2,7.2,0l46-27c0,0,1.2-1.8-1.3-3L169.8,391c0,0-2.7-2.1-6.2,0
		C160,393.2,117.5,417.5,117.5,417.5z"/>
	
		<linearGradient id="SVGID_00000028294459810140681470000012189223365188553149_" gradientUnits="userSpaceOnUse" x1="116.6992" y1="988.8496" x2="224.416" y2="988.8496" gradientTransform="matrix(1 0 0 1 0 -550)">
		<stop  offset="0" style="stop-color:#463780"/>
		<stop  offset="0.1433" style="stop-color:#382E68"/>
		<stop  offset="0.3308" style="stop-color:#292550"/>
		<stop  offset="0.5289" style="stop-color:#1F1F3F"/>
		<stop  offset="0.7426" style="stop-color:#191B34"/>
		<stop  offset="1" style="stop-color:#171A31"/>
	</linearGradient>
	<path style="fill:url(#SVGID_00000028294459810140681470000012189223365188553149_);" d="M116.7,425.1v-6.3c0,0-0.1,1.7,1.9,2.9
		c1.9,1.3,14.7,8.8,14.7,8.8l19.1,10.8l18.2,10.1c0,0,4,2.2,7.3,0.3s46.2-27.1,46.2-27.1s0.4-0.5,0.3-1.5v6.8c0,0.6-0.3,1.1-0.8,1.4
		l-45.1,26.3c0,0-4.6,3.4-9.1-0.8l-51.8-30.3C117,426.3,116.7,425.7,116.7,425.1L116.7,425.1z"/>
	<g>
		
			<linearGradient id="SVGID_00000049220238851380966150000016606166948890794119_" gradientUnits="userSpaceOnUse" x1="116.6496" y1="956.4222" x2="224.1879" y2="956.4222" gradientTransform="matrix(1 0 0 1 0 -550)">
			<stop  offset="0" style="stop-color:#4F3E90"/>
			<stop  offset="1" style="stop-color:#171A31"/>
		</linearGradient>
		<path style="fill:url(#SVGID_00000049220238851380966150000016606166948890794119_);" d="M117.5,402.6c0,0-2.1,1,0.3,3.7
			c2.4,2.6,52.9,30.4,52.9,30.4s4.2,2.2,7.2,0l46-27c0,0,1.2-1.8-1.3-3l-52.8-30.6c0,0-2.7-2.1-6.2,0
			C160,378.3,117.5,402.6,117.5,402.6z"/>
		
			<linearGradient id="SVGID_00000148654432506769762560000016749049336519184014_" gradientUnits="userSpaceOnUse" x1="116.6992" y1="973.9496" x2="224.416" y2="973.9496" gradientTransform="matrix(1 0 0 1 0 -550)">
			<stop  offset="0" style="stop-color:#463780"/>
			<stop  offset="0.1433" style="stop-color:#382E68"/>
			<stop  offset="0.3308" style="stop-color:#292550"/>
			<stop  offset="0.5289" style="stop-color:#1F1F3F"/>
			<stop  offset="0.7426" style="stop-color:#191B34"/>
			<stop  offset="1" style="stop-color:#171A31"/>
		</linearGradient>
		<path style="fill:url(#SVGID_00000148654432506769762560000016749049336519184014_);" d="M116.7,410.2v-6.3c0,0-0.1,1.7,1.9,2.9
			c1.9,1.3,14.7,8.8,14.7,8.8l19.1,10.8l18.2,10.1c0,0,4,2.2,7.3,0.3c3.2-1.9,46.2-27.1,46.2-27.1s0.4-0.5,0.3-1.5v6.8
			c0,0.6-0.3,1.1-0.8,1.4l-45.1,26.3c0,0-4.6,3.4-9.1-0.8l-51.8-30.3C117,411.4,116.7,410.8,116.7,410.2L116.7,410.2z"/>
	</g>
	<g id="XMLID_00000109709201082641804850000006661412059432279957_">
		
			<linearGradient id="SVGID_00000180348100145312669870000016783185405035162007_" gradientUnits="userSpaceOnUse" x1="141.2085" y1="394.5461" x2="158.4576" y2="394.5461">
			<stop  offset="0" style="stop-color:#7F00FF"/>
			<stop  offset="1" style="stop-color:#3F00FC"/>
		</linearGradient>
		<polyline style="fill:url(#SVGID_00000180348100145312669870000016783185405035162007_);" points="158.5,394 156.7,393 
			152.9,395.2 148.7,392.8 152.5,390.6 150.7,389.5 141.2,395.1 143,396.1 147.2,393.6 151.5,396 147.2,398.5 149,399.5 158.5,394 
					"/>
		
			<linearGradient id="SVGID_00000155841468875332752740000002885381309104025493_" gradientUnits="userSpaceOnUse" x1="151.8057" y1="399.0731" x2="167.285" y2="399.0731">
			<stop  offset="0" style="stop-color:#7F00FF"/>
			<stop  offset="1" style="stop-color:#3F00FC"/>
		</linearGradient>
		<path style="fill:url(#SVGID_00000155841468875332752740000002885381309104025493_);" d="M167.3,399.1l-1.8-1l-5.5,3.2
			c-1.9,1.1-3.4,1.1-4.8,0.3c-1.4-0.8-1.4-1.7,0.5-2.8l5.5-3.2l-1.8-1l-5.5,3.2c-2.9,1.7-2.5,3.3-0.2,4.7c2.3,1.3,5.2,1.6,8.1-0.1
			L167.3,399.1"/>
		
			<linearGradient id="SVGID_00000030485544913825560790000018297306448794087328_" gradientUnits="userSpaceOnUse" x1="158.7709" y1="404.7315" x2="176.1784" y2="404.7315">
			<stop  offset="0" style="stop-color:#7F00FF"/>
			<stop  offset="1" style="stop-color:#3F00FC"/>
		</linearGradient>
		<path style="fill:url(#SVGID_00000030485544913825560790000018297306448794087328_);" d="M176.2,404.3l-1.8-1l-5.8,3.4
			c-0.2,0.1-0.4,0.2-0.5,0.4l1.7-6.4l-1.5-0.9l-9.5,5.5l1.8,1l6-3.5c0.1-0.1,0.2-0.2,0.3-0.3l-1.7,6.4l1.5,0.9L176.2,404.3"/>
		
			<linearGradient id="SVGID_00000105419849698203828550000000418313363785125277_" gradientUnits="userSpaceOnUse" x1="167.7305" y1="408.1278" x2="182.2697" y2="408.1278">
			<stop  offset="0" style="stop-color:#7F00FF"/>
			<stop  offset="1" style="stop-color:#3F00FC"/>
		</linearGradient>
		<path style="fill:url(#SVGID_00000105419849698203828550000000418313363785125277_);" d="M174.3,408.6l3.2-1.8l1.5,0.8
			c1.2,0.7,1.2,1.3,0.2,1.9c-1.1,0.6-2.2,0.6-3.4,0L174.3,408.6 M180.4,406.7l-3.2-1.9l-9.5,5.5l1.8,1l3-1.7
			c0.1-0.1,0.2-0.2,0.2-0.3l1.5,0.9c2.5,1.4,5,1.2,6.7,0.2C182.7,409.5,182.9,408.1,180.4,406.7"/>
		
			<linearGradient id="SVGID_00000015353824576433805820000013936607442073469880_" gradientUnits="userSpaceOnUse" x1="173.3288" y1="414.359" x2="188.0759" y2="414.359">
			<stop  offset="0" style="stop-color:#7F00FF"/>
			<stop  offset="1" style="stop-color:#3F00FC"/>
		</linearGradient>
		<path style="fill:url(#SVGID_00000015353824576433805820000013936607442073469880_);" d="M180.4,413.2l3.8-1.1
			c0.3-0.1,0.7-0.2,0.9-0.3c-0.1,0.1-0.4,0.4-0.6,0.6l-1.9,2.2L180.4,413.2 M188.1,411.1l-1.8-1l-12.9,3.5l1.8,1.1l3.2-0.9l3.3,1.9
			l-1.6,1.9l1.9,1.1L188.1,411.1"/>
		
			<linearGradient id="SVGID_00000159443997043626555640000009587484267725731737_" gradientUnits="userSpaceOnUse" x1="183.1221" y1="417.9805" x2="197.8" y2="417.9805">
			<stop  offset="0" style="stop-color:#7F00FF"/>
			<stop  offset="1" style="stop-color:#3F00FC"/>
		</linearGradient>
		<path style="fill:url(#SVGID_00000159443997043626555640000009587484267725731737_);" d="M186.4,419.4l6.5-3.8l1.1,0.6
			c2,1.2,1.9,2.3-0.2,3.5c-2.2,1.3-4.3,1.4-6.3,0.3L186.4,419.4 M195.5,415.4l-2.9-1.7l-9.5,5.5l2.9,1.7c3.4,2,6.9,1.4,9.6-0.1
			C198.2,419.3,198.9,417.4,195.5,415.4"/>
	</g>
</g>
<g class="st43">
	<g>
		<line class="st44" x1="254.6" y1="0" x2="254.6" y2="297.1"/>
	</g>
</g>
</svg>
